<svg xmlns="http://www.w3.org/2000/svg" xmlns:xlink="http://www.w3.org/1999/xlink" width="400" zoomAndPan="magnify" viewBox="0 0 300 299.999988" height="400" preserveAspectRatio="xMidYMid meet" version="1.0"><path fill="#ffffff" d="M 149.933594 27.046875 C 189.964844 27.046875 194.699219 27.179688 210.539062 27.902344 C 225.132812 28.558594 233.085938 30.992188 238.410156 33.097656 C 245.375 35.789062 250.371094 39.078125 255.632812 44.335938 C 260.890625 49.59375 264.109375 54.589844 266.871094 61.558594 C 268.910156 66.816406 271.339844 74.769531 272.0625 89.429688 C 272.785156 105.269531 272.917969 110.003906 272.917969 150.03125 C 272.917969 190.0625 272.785156 194.796875 272.0625 210.636719 C 271.40625 225.230469 268.972656 233.183594 266.871094 238.507812 C 264.175781 245.476562 260.890625 250.472656 255.632812 255.730469 C 250.371094 260.988281 245.375 264.210938 238.410156 266.96875 C 233.152344 269.007812 225.195312 271.441406 210.539062 272.164062 C 194.699219 272.886719 189.964844 273.015625 149.933594 273.015625 C 109.902344 273.015625 105.171875 272.886719 89.328125 272.164062 C 74.738281 271.503906 66.785156 269.074219 61.460938 266.96875 C 54.492188 264.273438 49.496094 260.988281 44.238281 255.730469 C 38.980469 250.472656 35.757812 245.476562 32.996094 238.507812 C 30.960938 233.25 28.527344 225.296875 27.804688 210.636719 C 27.082031 194.796875 26.949219 190.0625 26.949219 150.03125 C 26.949219 110.003906 27.082031 105.269531 27.804688 89.429688 C 28.460938 74.835938 30.894531 66.882812 32.996094 61.558594 C 35.691406 54.589844 38.980469 49.59375 44.238281 44.335938 C 49.496094 39.078125 54.492188 35.855469 61.460938 33.097656 C 66.71875 31.058594 74.671875 28.625 89.328125 27.902344 C 105.171875 27.179688 109.902344 27.046875 149.933594 27.046875 M 149.933594 0.03125 C 109.179688 0.03125 104.121094 0.230469 88.082031 0.953125 C 72.109375 1.675781 61.195312 4.238281 51.664062 7.921875 C 41.804688 11.734375 33.457031 16.859375 25.109375 25.207031 C 16.828125 33.554688 11.699219 41.902344 7.886719 51.765625 C 4.207031 61.292969 1.644531 72.207031 0.921875 88.179688 C 0.195312 104.152344 0 109.277344 0 149.96875 C 0 190.722656 0.195312 195.78125 0.921875 211.820312 C 1.644531 227.792969 4.207031 238.703125 7.886719 248.234375 C 11.699219 258.097656 16.828125 266.445312 25.175781 274.792969 C 33.523438 283.140625 41.871094 288.265625 51.730469 292.078125 C 61.261719 295.761719 72.171875 298.324219 88.144531 299.046875 C 104.121094 299.769531 109.246094 299.96875 150 299.96875 C 190.753906 299.96875 195.816406 299.769531 211.855469 299.046875 C 227.828125 298.324219 238.738281 295.761719 248.269531 292.078125 C 258.128906 288.265625 266.476562 283.140625 274.824219 274.792969 C 283.171875 266.445312 288.300781 258.097656 292.113281 248.234375 C 295.792969 238.703125 298.355469 227.792969 299.078125 211.820312 C 299.804688 195.847656 300 190.722656 300 149.96875 C 300 109.214844 299.804688 104.152344 299.078125 88.113281 C 298.355469 72.140625 295.792969 61.230469 292.113281 51.699219 C 288.300781 41.839844 283.171875 33.492188 274.824219 25.140625 C 266.476562 16.792969 258.128906 11.667969 248.269531 7.855469 C 238.738281 4.175781 227.828125 1.609375 211.855469 0.886719 C 195.816406 0.230469 190.6875 0.03125 149.933594 0.03125 " fill-opacity="1" fill-rule="nonzero"/><path fill="#ffffff" d="M 149.933594 72.996094 C 107.40625 72.996094 72.960938 107.4375 72.960938 149.96875 C 72.960938 192.496094 107.472656 227.003906 150 227.003906 C 192.527344 227.003906 227.039062 192.5625 227.039062 149.96875 C 226.972656 107.4375 192.460938 72.996094 149.933594 72.996094 M 149.933594 199.988281 C 122.328125 199.988281 99.976562 177.640625 99.976562 150.03125 C 99.976562 122.425781 122.328125 100.078125 149.933594 100.078125 C 177.542969 100.078125 199.890625 122.425781 199.890625 150.03125 C 199.957031 177.574219 177.542969 199.988281 149.933594 199.988281 " fill-opacity="1" fill-rule="nonzero"/><path fill="#ffffff" d="M 248.007812 69.972656 C 248.007812 79.898438 239.921875 87.980469 229.996094 87.980469 C 220.070312 87.980469 211.984375 79.898438 211.984375 69.972656 C 211.984375 60.046875 220.070312 51.960938 229.996094 51.960938 C 239.921875 51.960938 248.007812 59.980469 248.007812 69.972656 " fill-opacity="1" fill-rule="nonzero"/></svg>