<svg xmlns="http://www.w3.org/2000/svg" xmlns:xlink="http://www.w3.org/1999/xlink" width="400" zoomAndPan="magnify" viewBox="0 0 300 299.999988" height="400" preserveAspectRatio="xMidYMid meet" version="1.0"><defs><clipPath id="id1"><path d="M 3 1 L 297 1 L 297 298 L 3 298 Z M 3 1 " clip-rule="nonzero"/></clipPath></defs><path fill="#ffffff" d="M 161.136719 135.425781 L 161.136719 134.964844 C 161.039062 135.117188 160.9375 135.277344 160.835938 135.425781 Z M 161.136719 135.425781 " fill-opacity="1" fill-rule="nonzero"/><g clip-path="url(#id1)"><path fill="#ffffff" d="M 275.367188 1.910156 L 24.691406 1.910156 C 12.6875 1.910156 2.964844 11.414062 2.964844 23.117188 L 2.964844 276.71875 C 2.964844 288.425781 12.695312 297.917969 24.691406 297.917969 L 275.367188 297.917969 C 287.382812 297.917969 297.105469 288.410156 297.105469 276.71875 L 297.105469 23.117188 C 297.113281 11.402344 287.375 1.910156 275.367188 1.910156 Z M 92.121094 249.710938 L 47.695312 249.710938 L 47.695312 116.046875 L 92.128906 116.046875 L 92.128906 249.710938 Z M 69.910156 97.789062 L 69.613281 97.789062 C 54.710938 97.789062 45.070312 87.515625 45.070312 74.695312 C 45.070312 61.585938 55.007812 51.605469 70.203125 51.605469 C 85.410156 51.605469 94.753906 61.585938 95.050781 74.695312 C 95.050781 87.523438 85.398438 97.789062 69.910156 97.789062 Z M 252.328125 249.710938 L 207.902344 249.710938 L 207.902344 178.1875 C 207.902344 160.222656 201.472656 147.964844 185.398438 147.964844 C 173.128906 147.964844 165.820312 156.238281 162.597656 164.21875 C 161.425781 167.070312 161.140625 171.050781 161.140625 175.050781 L 161.140625 249.703125 L 116.714844 249.703125 C 116.714844 249.703125 117.296875 128.570312 116.714844 116.035156 L 161.140625 116.035156 L 161.140625 134.960938 C 167.042969 125.855469 177.601562 112.886719 201.1875 112.886719 C 230.414062 112.886719 252.339844 131.996094 252.339844 173.050781 Z M 252.328125 249.710938 " fill-opacity="1" fill-rule="nonzero"/></g></svg>