<?xml version="1.0" encoding="utf-8"?>
<!-- Generator: Adobe Illustrator 26.4.0, SVG Export Plug-In . SVG Version: 6.00 Build 0)  -->
<svg version="1.1" id="Ebene_1" xmlns="http://www.w3.org/2000/svg" xmlns:xlink="http://www.w3.org/1999/xlink" x="0px" y="0px"
	 viewBox="0 0 400 400" style="enable-background:new 0 0 400 400;" xml:space="preserve">
<path d="M36.4,0C16.3,0,0,16.3,0,36.4v327.3C0,383.7,16.3,400,36.4,400h327.3c20.1,0,36.4-16.3,36.4-36.4V36.4
	C400,16.3,383.7,0,363.6,0H36.4z M284.7,95.4c11.3,0,19,7.2,19,17c0,9.8-7.7,17-19,17c-11.2,0-19-7.2-19-17
	C265.7,102.6,273.5,95.4,284.7,95.4z M141.7,108.2h36l63.7,179.4h-34.4l-15.2-45.8h-66l-15.4,45.8H78.1L141.7,108.2z M158,142.4
	l-24.6,74h51.1l-24.4-74H158z M269.5,151.6h30.7v136h-30.7V151.6z"/>
</svg>
