<?xml version="1.0" encoding="utf-8"?>
<!-- Generator: Adobe Illustrator 26.4.0, SVG Export Plug-In . SVG Version: 6.00 Build 0)  -->
<svg version="1.1" id="Ebene_1" xmlns="http://www.w3.org/2000/svg" xmlns:xlink="http://www.w3.org/1999/xlink" x="0px" y="0px"
	 viewBox="0 0 400 400" style="enable-background:new 0 0 400 400;" xml:space="preserve">
<path d="M271.8,182.9c-6.8,0-11.7,2.7-14.8,8.2c-3.1,5.5-4.7,15.2-4.7,29.2v9.8c0,13.9,1.5,23.6,4.4,29.1c3,5.5,7.9,8.3,15,8.3
	c7.3,0,12.8-3.2,16.5-9.8v-64.3C284.6,186.4,279.1,182.9,271.8,182.9z M355.6,0H44.4C19.9,0,0,19.9,0,44.4v311.1
	C0,380.1,19.9,400,44.4,400h311.1c24.5,0,44.4-19.9,44.4-44.4V44.4C400,19.9,380.1,0,355.6,0z M161.6,295.6l-26-66.3l-25.9,66.3
	H65.3l45.6-95.6l-44.7-94h43.9l25.5,65.1l25.5-65.1H205l-44.5,94l45.6,95.6H161.6z M325.3,295.6h-33.5l-1.7-14.3
	c-7.6,11.3-17.3,16.9-29.2,16.9c-14.8,0-26-5.6-33.8-16.9c-7.8-11.3-11.7-27.9-11.9-49.7v-10.7c0-23.1,3.9-40.3,11.7-51.7
	c7.8-11.4,19.2-17.1,34.1-17.1c10.8,0,19.9,4.7,27.1,14.1V95.6h37.1L325.3,295.6L325.3,295.6z"/>
</svg>
