<?xml version="1.0" encoding="utf-8"?>
<!-- Generator: Adobe Illustrator 26.4.0, SVG Export Plug-In . SVG Version: 6.00 Build 0)  -->
<svg version="1.1" id="Ebene_1" xmlns="http://www.w3.org/2000/svg" xmlns:xlink="http://www.w3.org/1999/xlink" x="0px" y="0px"
	 viewBox="0 0 400 400" style="enable-background:new 0 0 400 400;" xml:space="preserve">
<path d="M36.4,0C16.3,0,0,16.3,0,36.4v327.3C0,383.7,16.3,400,36.4,400h327.3c20.1,0,36.4-16.3,36.4-36.4V36.4
	C400,16.3,383.7,0,363.6,0H36.4z M72.7,108.9h72.3c35.8,0,60.3,24.5,60.3,60.7c0,35.5-25.4,59.9-61.7,59.9h-38.9v58.8H72.7V108.9z
	 M104.8,135.8v67.1h31.7c22.9,0,36.3-11.9,36.3-33.3c0-22-13.1-33.8-36.2-33.8H104.8z M276.5,149.6c32.3,0,52.6,14.3,54.8,39h-28.9
	c-2.2-9.6-11.3-15.7-25.7-15.7c-14,0-24.6,6.7-24.6,16.5c0,7.7,6.5,12.4,20.1,15.5l24,5.5c26,5.8,38,17,38,37
	c0,26.1-24,43.5-57.9,43.5s-55.3-14.7-57.7-39.4H249c3,10.1,12.5,16,27.9,16c15.5,0,26.3-6.8,26.3-16.9c0-7.7-5.8-12.6-18.8-15.4
	l-24.1-5.6c-26.1-6-38.4-18-38.4-38.5C222.1,166.6,244.4,149.6,276.5,149.6z"/>
</svg>
