<?xml version="1.0" encoding="utf-8"?>
<!-- Generator: Adobe Illustrator 26.4.0, SVG Export Plug-In . SVG Version: 6.00 Build 0)  -->
<svg version="1.1" id="a" xmlns="http://www.w3.org/2000/svg" xmlns:xlink="http://www.w3.org/1999/xlink" x="0px" y="0px"
	 viewBox="0 0 414.5 500" style="enable-background:new 0 0 414.5 500;" xml:space="preserve">
<style type="text/css">
	.st0{fill-rule:evenodd;clip-rule:evenodd;fill:#FFFFFF;}
	.st1{fill-rule:evenodd;clip-rule:evenodd;fill:#161E33;}
	.st2{fill:#161E33;}
</style>
<path class="st0" d="M142.3,500v-70.9c0-6.5,6.8-10.8,12.5-7.8l52.4,27.2l52.4-27.2c5.7-3,12.5,1.3,12.5,7.8V500"/>
<path class="st1" d="M207.2,0c18.3,0,33.2,14.9,33.2,33.2c0,13.4-7.9,24.9-19.3,30.2v47.1h66.6c69.9,0,126.8,57,126.8,127v33.8
	c0,70-56.9,127-126.8,127H126.8c-69.9,0-126.8-57-126.8-127v-33.8c0-70,56.9-127,126.8-127h66.6v-47c-11.4-5.2-19.3-16.8-19.3-30.2
	C174.1,14.9,188.9,0,207.2,0z"/>
<path class="st0" d="M287.6,179.6H126.8c-31.9,0-57.7,25.9-57.7,57.8v33.8c0,31.9,25.8,57.8,57.7,57.8h160.8
	c31.9,0,57.7-25.9,57.7-57.8v-33.8C345.4,205.5,319.5,179.6,287.6,179.6L287.6,179.6z"/>
<ellipse class="st2" cx="143.7" cy="254.2" rx="33.2" ry="33.2"/>
<ellipse class="st2" cx="270.8" cy="254.2" rx="33.2" ry="33.2"/>
</svg>
