<?xml version="1.0" encoding="utf-8"?>
<!-- Generator: Adobe Illustrator 26.3.1, SVG Export Plug-In . SVG Version: 6.00 Build 0)  -->
<svg version="1.1" id="Ebene_1" xmlns="http://www.w3.org/2000/svg" xmlns:xlink="http://www.w3.org/1999/xlink" x="0px" y="0px"
	 viewBox="0 0 48 48" style="enable-background:new 0 0 48 48;" xml:space="preserve">
<style type="text/css">
	.st0{fill:#FFFFFF;}
</style>
<path class="st0" d="M22.1,37c-3.8,0-7.1-1.4-9.9-4.1S8,27,8,23.2V9c0-0.8,0.3-1.5,0.9-2.1C9.5,6.3,10.2,6,11,6h26
	C39,6,40.6,6.7,42,8c1.4,1.4,2,3,2,4.9s-0.7,3.6-2,4.9c-1.3,1.4-3,2-4.9,2h-0.8v3.4c0,3.7-1.4,7-4.2,9.7S25.9,37,22.1,37z M11,16.9
	h22.2V9H11V16.9z M36.2,16.9H37c1.1,0,2-0.4,2.8-1.1s1.2-1.7,1.2-2.8s-0.4-2-1.2-2.8C39.1,9.4,38.1,9,37,9h-0.8V16.9z M8,42v-3h31.7
	v3H8z"/>
</svg>
