<?xml version="1.0" encoding="utf-8"?>
<!-- Generator: Adobe Illustrator 26.3.1, SVG Export Plug-In . SVG Version: 6.00 Build 0)  -->
<svg version="1.1" id="Ebene_1" xmlns="http://www.w3.org/2000/svg" xmlns:xlink="http://www.w3.org/1999/xlink" x="0px" y="0px"
	 viewBox="0 0 48 48" style="enable-background:new 0 0 48 48;" xml:space="preserve">
<style type="text/css">
	.st0{fill:#FFFFFF;}
</style>
<path class="st0" d="M1.9,40v-4.7c0-1.2,0.3-2.2,0.9-3.2c0.6-0.9,1.4-1.7,2.5-2.1c2.4-1.1,4.6-1.8,6.6-2.3c1.9-0.5,4-0.7,6-0.7
	s4.1,0.2,6,0.7c1.9,0.5,4.1,1.2,6.6,2.3c1.1,0.5,1.9,1.2,2.5,2.1c0.6,1,0.9,2,0.9,3.2V40H1.9z M17.9,24c-2.2,0-4-0.7-5.4-2.1
	c-1.4-1.4-2.1-3.2-2.1-5.4s0.7-4,2.1-5.4s3.2-2.1,5.4-2.1s4,0.7,5.4,2.1s2.1,3.2,2.1,5.4s-0.7,4-2.1,5.4C21.9,23.2,20.1,24,17.9,24z
	 M35.9,16.5c0,2.2-0.7,4-2.1,5.4c-1.4,1.4-3.2,2.1-5.4,2.1c-0.4,0-0.8,0-1.2-0.1c-0.4-0.1-0.9-0.1-1.2-0.3c0.8-0.8,1.4-1.9,1.8-3.1
	c0.4-1.2,0.6-2.6,0.6-4.1s-0.2-2.8-0.6-4c-0.4-1.2-1-2.2-1.8-3.2c0.4-0.1,0.8-0.2,1.2-0.2C27.6,9,28,8.9,28.4,8.9
	c2.2,0,4,0.7,5.4,2.1S35.9,14.2,35.9,16.5z M36.9,40v-4.7c0-2.1-0.5-3.8-1.6-5.2c-1.1-1.4-2.5-2.4-4.2-3.3c2.3,0.3,4.5,0.7,6.5,1.2
	c2,0.5,3.7,1.1,5,1.8c1.1,0.6,2,1.4,2.6,2.4c0.6,0.9,0.9,2,0.9,3.1V40H36.9z"/>
</svg>
