<?xml version="1.0" encoding="utf-8"?>
<!-- Generator: Adobe Illustrator 26.3.1, SVG Export Plug-In . SVG Version: 6.00 Build 0)  -->
<svg version="1.1" id="Ebene_1" xmlns="http://www.w3.org/2000/svg" xmlns:xlink="http://www.w3.org/1999/xlink" x="0px" y="0px"
	 viewBox="0 0 48 48" style="enable-background:new 0 0 48 48;" xml:space="preserve">
<style type="text/css">
	.st0{fill:#FFFFFF;}
</style>
<path class="st0" d="M5,40c-0.8,0-1.5-0.3-2.1-0.9S2,37.8,2,37V14h3v23l0,0l0,0h35v3H5z M11,34c-0.8,0-1.5-0.3-2.1-0.9S8,31.8,8,31
	V11c0-0.8,0.3-1.5,0.9-2.1S10.2,8,11,8h32c0.8,0,1.5,0.3,2.1,0.9S46,10.2,46,11v20c0,0.8-0.3,1.5-0.9,2.1S43.8,34,43,34H11z M11,31
	h5c0-1.4-0.5-2.6-1.4-3.5c-1-1-2.1-1.5-3.6-1.5V31L11,31L11,31z M38,31h5l0,0l0,0v-5c-1.4,0-2.6,0.5-3.5,1.5
	C38.5,28.4,38,29.6,38,31z M27,27c1.7,0,3.1-0.6,4.2-1.8c1.2-1.2,1.8-2.6,1.8-4.2s-0.6-3.1-1.8-4.2C30.1,15.6,28.7,15,27,15
	s-3.1,0.6-4.2,1.8S21,19.3,21,21s0.6,3.1,1.8,4.2S25.3,27,27,27z M11,16c1.4,0,2.6-0.5,3.6-1.4S16,12.4,16,11h-5l0,0l0,0V16z M43,16
	v-5l0,0l0,0h-5c0,1.4,0.5,2.6,1.5,3.6S41.6,16,43,16z"/>
</svg>
