<?xml version="1.0" encoding="utf-8"?>
<!-- Generator: Adobe Illustrator 26.3.1, SVG Export Plug-In . SVG Version: 6.00 Build 0)  -->
<svg version="1.1" id="Ebene_1" xmlns="http://www.w3.org/2000/svg" xmlns:xlink="http://www.w3.org/1999/xlink" x="0px" y="0px"
	 viewBox="0 0 48 48" style="enable-background:new 0 0 48 48;" xml:space="preserve">
<style type="text/css">
	.st0{fill:#FFFFFF;}
</style>
<path class="st0" d="M11.6,30.1L8.4,27c2.3-2.3,4.8-4.1,7.3-5.2S21.1,20,24,20s5.7,0.6,8.2,1.8s5,2.9,7.3,5.2l-3.1,3.1
	c-2-2-4.1-3.5-6.2-4.4c-2.1-0.9-4.1-1.3-6.2-1.3s-4.2,0.4-6.2,1.3C15.7,26.7,13.6,28.1,11.6,30.1z M3.2,21.7L0,18.5
	c3.1-3.2,6.7-5.7,10.8-7.6S19.3,8,24,8s9.1,1,13.2,2.9s7.7,4.5,10.8,7.6l-3.2,3.2c-2.9-2.8-6.1-5-9.6-6.7S28,12.5,24,12.5
	s-7.7,0.8-11.2,2.5S6.1,18.9,3.2,21.7z M24,42.5l7.4-7.5c-1-1-2.1-1.7-3.3-2.3C26.8,32.3,25.5,32,24,32s-2.8,0.3-4.1,0.8
	c-1.2,0.5-2.4,1.3-3.3,2.3L24,42.5z"/>
</svg>
