<?xml version="1.0" encoding="utf-8"?>
<!-- Generator: Adobe Illustrator 26.2.1, SVG Export Plug-In . SVG Version: 6.00 Build 0)  -->
<svg version="1.1" id="Ebene_1" xmlns="http://www.w3.org/2000/svg" xmlns:xlink="http://www.w3.org/1999/xlink" x="0px" y="0px"
	 viewBox="0 0 500 500" style="enable-background:new 0 0 500 500;" xml:space="preserve">
<style type="text/css">
	.st0{fill:#57A8DE;}
	.st1{fill:none;stroke:#57A8DE;stroke-width:4.000000e-02;stroke-miterlimit:3.86;}
	.st2{clip-path:url(#SVGID_00000065774710411444380320000008178768670560954014_);}
	.st3{fill:#1D1E1B;}
	.st4{fill:none;stroke:#1D1E1B;stroke-width:7.000000e-02;}
	.st5{fill:#878787;}
</style>
<g id="logo" transform="translate(14.349 0.175)">
	<path id="Pfad_1" class="st0" d="M144.7,212.1H230v85.3h-85.3V212.1z M333.2,254v8.1c-2.9-1.5-18.1-1.5-17.9,10.6
		c0.2,12.5,2.9,4.2,1.9,15.6c-0.2,3.1-0.2,6.1,0,9.2h-16.5c0.6-4.4,0.5-8.8-0.2-13.1c-1.3-6.1-1.8-12.3-1.5-18.6
		c0.2-9,3.5-8.3,9.2-8.8C312.3,256.3,323.2,255.4,333.2,254 M229.8,197.5h-24.2c-11.9,1-22.7-6.9-25.2-18.6c-1.9-8.1-1.2-24,17.5-29
		c19.4-4,29.8,8.1,31.9,22.9V197.5z M177.2,197.5h-32.7V112h85.3v35c-6.7-7.5-25.6-10-35.4-7.7c-12.3,3.5-23.3,10.8-26.3,29
		C166.2,183.7,177.2,197.3,177.2,197.5 M247.7,197.5v-24.6c2.1-15,12.5-27.1,31.9-22.9c18.8,5,19.4,20.9,17.5,29
		c-1,4.3-3.1,8.3-6.3,11.5c-0.2,0-0.2-0.2-0.4-0.4c-3.3-1.7-1.2-4.8-14.6-5.2c-9.8,0.8-10.8,5.2-11.7,7.3c-0.4,1.8-0.6,3.7-0.6,5.6
		L247.7,197.5 M247.9,212.1h18.3c0.4,0.8,0.9,1.6,1.5,2.3c2.6,2.4,5.6,4.2,9,5.2c7.9,1.7,9,0,10.4-0.8c2.1-2,4-4.3,5.4-6.9h21.1
		c0.6-4.8,0.9-9.6,0.8-14.4h-14.2c0,0,11.1-13.8,9-29.4c-2.9-18.1-14.2-25.4-26.3-29c-9.6-2.3-28.8,0.2-35.4,7.9v-34.8h85.3v78
		c-0.5-0.4-1.1-0.7-1.7-1c-3.3-1.9-16.9,0-16.9,8.5c0,4.9-0.2,9.8-0.8,14.6l-0.2,1c3.3,2.3,6.7,4.8,9.8,7.3c2.5,1.9,5.4,3.3,8.3,4.4
		c0.5,0.2,1.1,0.2,1.7,0.2v7.1c-9,2.3-22.3,3.5-30.2,0.8c-7.9-4.2-16.7-6.8-25.6-7.5c-18.3,0-16.3,12.7-16.1,17.7
		c1.4,7.5,3.7,14.9,6.7,21.9c1.2,1.9,1.9,4.2,2.1,6.5c-1.2,2.6-1.8,5.3-1.9,8.1c-2.3,2.9-1.5,11.7-0.4,17.5h-19.8
		C247.7,297.3,247.9,212.1,247.9,212.1z"/>
	<path id="Pfad_2" class="st1" d="M144.7,212.1H230v85.5h-85.3V212.1z M333.2,254v8.1c-2.9-1.5-18.1-1.5-17.9,10.6
		c0.2,12.7,2.9,4.2,1.9,15.6c-0.2,3.1-0.2,6.1,0,9.2h-16.5c0.6-4.4,0.5-8.8-0.2-13.1c-1.3-6.1-1.8-12.3-1.5-18.6
		c0.2-9,3.5-8.3,9.2-8.8C312.3,256.3,323.2,255.4,333.2,254z M229.8,197.5h-24.2c-11.8,0.8-22.5-7.1-25.2-18.6
		c-1.9-8.1-1.2-24,17.5-29c19.4-4,29.8,8.1,31.9,22.9V197.5z M177,197.5h-32.7V112h85.5v35c-6.7-7.5-25.6-10-35.4-7.7
		c-12.3,3.5-23.3,10.8-26.3,29C166,183.7,177,197.5,177,197.5L177,197.5z M247.5,197.7v-24.8c2.1-15,12.5-27.1,31.9-22.9
		c18.8,5,19.4,20.9,17.5,29c-1,4.3-3.1,8.3-6.3,11.5c-0.2,0-0.2-0.2-0.4-0.4c-3.3-1.7-1.2-4.8-14.4-5.2c-10,0.8-10.8,5.2-11.7,7.3
		c-0.4,1.8-0.6,3.7-0.6,5.6L247.5,197.7z M247.9,212.1h18.3c0.4,0.8,0.9,1.6,1.5,2.3c2.6,2.4,5.6,4.2,9,5.2c7.9,1.7,9,0,10.4-0.8
		c2.1-2,4-4.3,5.4-6.9h21.1c0.6-4.8,0.9-9.6,0.8-14.4h-14.2c0,0,11.1-13.8,9-29.4c-2.9-18.1-14.2-25.4-26.3-29
		c-9.6-2.3-28.8,0.2-35.4,7.9v-34.8h85.3v78c-0.5-0.4-1.1-0.7-1.7-1c-3.3-1.9-16.9,0-16.9,8.5c0,4.9-0.2,9.8-0.8,14.6l-0.2,1
		c3.3,2.3,6.7,4.8,9.8,7.3c2.5,1.9,5.4,3.3,8.3,4.4c0.5,0.2,1.1,0.2,1.7,0.2v7.1c-9,2.3-22.3,3.5-30.2,0.8
		c-7.9-4.2-16.7-6.8-25.6-7.5c-18.3,0-16.3,12.7-16.1,17.7c1.4,7.5,3.7,14.9,6.7,21.9c1.2,1.9,1.9,4.2,2.1,6.5
		c-1.1,2.6-1.8,5.3-1.9,8.1c-2.3,2.9-1.5,11.7-0.4,17.5h-19.8L247.9,212.1L247.9,212.1z"/>
	<g id="Gruppe_2" transform="translate(0 -0.136)">
		<g>
			<defs>
				<rect id="SVGID_1_" x="63.6" y="26.7" width="349" height="346.9"/>
			</defs>
			<clipPath id="SVGID_00000160188679169838206940000005086748649744666797_">
				<use xlink:href="#SVGID_1_"  style="overflow:visible;"/>
			</clipPath>
			<g id="Gruppe_1" style="clip-path:url(#SVGID_00000160188679169838206940000005086748649744666797_);">
				<path id="Pfad_3" class="st3" d="M272.1,369.4c0,0,0-19.8-0.2-25.9c-0.2-4.4-2.9-37.9-3.3-40.9c-0.4-2.1-3.8-18.3-0.4-22.7
					c0.2-2.8,0.8-5.5,1.9-8.1c-0.1-2.3-0.8-4.6-2.1-6.5c-3-7-5.3-14.4-6.7-21.9c-0.2-5-2.3-17.5,16.1-17.7c9,0.7,17.7,3.3,25.6,7.5
					c9.4,3.1,26.9,0.8,35-2.5c5.2-2.1,23.8-11.9,23.8-11.9c11.7,3.8,8.8,19,5,22.1c-2.5,3.1-10.2,9.2-29.6,12.5
					c-10.8,1.9-24.4,2.9-29,3.3c-5.6,0.6-8.8,0-9.2,9c-0.4,6.2,0.1,12.5,1.5,18.6c1.7,5.4-0.6,20.9-0.6,20.9l-2.7,34.4
					c-0.2,4.1-0.6,8.1-1.2,12.1c-1.1,3.4-2.5,6.6-4.4,9.6c-0.8,2.2-3.1,3.6-5.4,3.1c-3.9,0.4-7.4,2.6-9.6,5.8
					C272.1,377.7,272.1,369.4,272.1,369.4 M296.1,194.3c0.6,3.1,0.6,10.8-1.5,12.9s0,4.4-7.5,11.9c-1.7,0.8-2.7,2.3-10.4,0.8
					c-3.4-1-6.4-2.8-9-5.2c-3.9-6.8-5-14.8-3.3-22.5c0.8-2.1,1.9-6.5,11.7-7.3c13.1,0.4,11.1,3.8,14.4,5.2
					C291.3,191.4,294.9,191.6,296.1,194.3 M313.2,213.3c3.3,2.3,6.7,4.8,9.8,7.3c2.5,1.9,5.4,3.3,8.3,4.4c3.5,1.2,11.9-2.7,13.8-6.9
					c1.9-4.2,0.4-11.5-0.8-16.1c-1-3.5,0.4-2.7-2.3-4.8c-3.5-2.9-7.2-5.7-11.1-8.1c-3.3-1.9-16.9,0-16.9,8.5
					C314.2,202.8,313.9,208.1,313.2,213.3 M319.2,368.6c2.9-2.5,3.1-5.8,7.7-4.2c6,2.1,8.1-9,10-10.6c7.7-7.3,3.5-5.2,4.2-21.3
					c1-9.6,7.1-35,7.1-42.1c0.4-6.7,0.4-13.6-5-19c-3.1-3.2-6.4-6.1-9.8-9c-0.8-1.7-18.6-2.7-18.3,10.2c0.2,12.9,2.9,4.2,1.9,15.6
					c-0.2,1.7,0,5,0,14c0,6-1.2,26.7-1,30.6c0.4,5-2.9,34.4-2.3,38.4c0.8,4.6,3.8,2.7,3.5,1.2C316.1,370.4,319.2,368.8,319.2,368.6"
					/>
				<path id="Pfad_4" class="st4" d="M272.1,369.4c0,0,0-19.8-0.2-25.9c-0.2-4.4-2.9-37.9-3.3-40.9c-0.4-2.3-3.8-18.6-0.4-22.7
					c0.1-2.8,0.7-5.6,1.9-8.1c0-2.3-0.7-4.6-2.1-6.5c-3-7-5.3-14.4-6.7-21.9c-0.2-4.8-2.3-17.5,16.1-17.7c9,0.7,17.7,3.3,25.6,7.5
					c9.4,3.1,26.9,0.8,35-2.5c5.2-2.1,24-11.9,24-11.9c11.7,3.8,8.8,19,5,22.1c-2.5,3.1-10.2,9-29.6,12.3
					c-10.8,1.9-24.6,2.9-29.2,3.3c-5.6,0.6-8.8,0-9.2,8.8c-0.4,6.2,0.1,12.5,1.5,18.6c1.7,5.4-0.6,20.9-0.6,20.9l-2.7,34.8
					c-0.2,4.1-0.6,8.1-1.2,12.1c-1.1,3.4-2.5,6.6-4.4,9.6c-0.8,2.2-3.1,3.6-5.4,3.1c-3.9,0.4-7.4,2.6-9.6,5.8
					C272.1,377.7,272.1,369.4,272.1,369.4L272.1,369.4z M295.9,194.1c0.6,3.1,0.6,10.8-1.5,12.9s0,4.4-7.5,11.9
					c-1.7,0.8-2.7,2.3-10.4,0.8c-3.3-1.1-6.4-2.9-9-5.2c-4-6.8-5.2-14.9-3.3-22.5c0.8-2.1,1.9-6.5,11.7-7.3
					c13.1,0.4,11.1,3.8,14.4,5.2C291.1,191.2,294.8,191.6,295.9,194.1L295.9,194.1z M313.2,213c3.3,2.3,6.7,4.8,9.8,7.3
					c2.5,1.9,5.4,3.3,8.3,4.4c3.5,1.2,11.9-2.7,13.8-6.9s0.4-11.5-0.8-16.1c-1-3.5,0.2-2.9-2.3-5c-3.5-2.9-7.2-5.6-11.1-8.1
					c-3.3-1.9-16.9,0-16.9,8.5C314.2,202.5,313.9,207.8,313.2,213L313.2,213z M319.2,368.6c2.9-2.5,3.1-5.8,7.9-4.2
					c6,2.1,8.1-9,10-10.6c7.7-7.3,3.5-5.2,4.4-21.3c1-9.6,7.1-35,7.1-42.1c0.4-6.7,0.4-13.6-5-19c-3.1-3.2-6.4-6.1-9.8-9
					c-0.8-1.7-18.6-2.7-18.3,10.2s2.9,4.2,1.9,15.6c-0.2,1.7,0,5.2,0,14c0,6-1.2,26.7-1,30.6c0.4,5-2.9,34.4-2.3,38.4
					c0.8,4.6,3.8,2.7,3.5,1.2C316.3,370.4,319.2,368.8,319.2,368.6L319.2,368.6z"/>
			</g>
		</g>
	</g>
	<g id="Gruppe_3">
		<path id="Pfad_6" class="st3" d="M190.8,348.8l-3.3-1.2c-1-0.5-2.2-0.6-3.3-0.4c-2.5,0.7-4.4,2.7-5,5.2c-1.4,2.8-0.7,6.1,1.7,8.1
			c0.7,0.4,1.5,0.8,2.3,1l2.7,1L190.8,348.8L190.8,348.8z M180.8,366.3c-0.8-0.2-1.5-0.6-2.3-0.8c-2.1-1-4-2.6-5.2-4.6
			c-0.5-0.9-0.8-1.9-1-2.9c-0.4-2.6-0.2-5.2,0.6-7.7c0.2-0.8,0.6-1.6,1-2.3c1-2.3,2.7-4.1,4.8-5.4c1.2-0.8,2.7-1.3,4.2-1.2
			c2.1,0,4.1,0.4,6,1l9.6,3.5l-8.5,24L180.8,366.3L180.8,366.3z"/>
		<path id="Pfad_7" class="st3" d="M169.9,334l5.8,2.9l-11.2,22.9l-5.8-2.9L169.9,334z"/>
		<path id="Pfad_8" class="st3" d="M149.1,343.2l7.1-6l-4.8-2.9L149.1,343.2L149.1,343.2z M148.5,321.1l5.6,3.5l-1.2,4.8l7.3,4.6
			l3.8-3.1l5.6,3.5l-21.5,16.7l-5.4-3.5L148.5,321.1L148.5,321.1z"/>
		<path id="Pfad_9" class="st3" d="M128,323.6l2.5-18.3l6,5.2l-2.1,12.5l3.8-0.4l5.2-5.8l4.8,4.2l-16.9,19.2l-4.8-4.2l6.7-7.5
			l-12.7,2.1l-6-5.4L128,323.6z"/>
		<path id="Pfad_10" class="st3" d="M109.5,311.3c2.8,0.9,5.9,0.1,7.9-2.1c1.6-1.2,2.9-2.9,3.5-4.8c0.5-1.7,0.1-3.5-1-4.8
			c-1.1-1.3-2.7-1.9-4.4-1.7c-2,0.3-3.9,1.3-5.4,2.7c-1.9,1.5-3.2,3.6-3.5,6c0,1.2,0.4,2.3,1,3.3
			C108.2,310.5,108.8,310.9,109.5,311.3 M100.7,305.2c0.3-3.9,2.3-7.4,5.4-9.8c3-2.9,7.3-4.2,11.5-3.3c2.6,0.5,4.9,2,6.5,4.2
			c1,1.2,1.8,2.6,2.3,4.2c1.5,5.2-0.6,10.7-5,13.8c-2.4,2.3-5.6,3.5-9,3.5c-3.6,0-7-1.7-9.2-4.6
			C101.4,310.9,100.5,308.1,100.7,305.2"/>
		<path id="Pfad_11" class="st3" d="M104.3,267.5l3.1,5.4L98,288.6l13.8-8.1l3.1,5.2l-22.1,12.9l-3.3-5.6l9.4-15.2l-13.6,7.9
			l-3.1-5.2L104.3,267.5z"/>
		<path id="Pfad_12" class="st3" d="M100.5,258.1l2.5,6l-23.3,10.2l-2.7-6L100.5,258.1z"/>
		<path id="Pfad_13" class="st3" d="M78,248.1c-1.7,0.7-2.5,2.7-1.9,4.4c0,0.1,0.1,0.2,0.2,0.2c0,0,0,0,0,0c0,0,0.8,3.1,3.1,2.5
			c0.8-0.2,1.3-0.9,1.2-1.7v-4.8c-0.1-2-0.1-4,0.2-6c0.6-2.3,2.3-4,4.6-4.6c2.5-0.9,5.2-0.4,7.3,1.2c4.2,4,5.6,10,3.8,15.4
			c-1.1,2.1-3,3.6-5.2,4.2l-1.9-6.2c1.2-0.4,2.2-1.3,2.7-2.5c0.2-1.2,0.2-2.4-0.2-3.5c-0.3-0.9-0.8-1.8-1.5-2.5
			c-0.2-0.3-0.5-0.4-0.8-0.4c-0.5-0.2-1-0.2-1.5,0c-1.7,0.4-1.7,2.1-1.7,4.6v2.7c0.2,1.9,0,3.8-0.4,5.6c-0.4,1.3-1.3,2.3-2.5,2.9
			c-2.6,1.9-6.1,1.7-8.5-0.4c-1.9-1.4-3.1-3.5-3.5-5.8c-0.4-1-0.6-2.1-0.6-3.1c-0.4-2.6,0.6-5.3,2.5-7.1c0.9-0.8,2-1.4,3.1-1.7
			L78,248.1L78,248.1z"/>
		<path id="Pfad_14" class="st3" d="M73.8,220.4c-2.3,0.7-3.8,3-3.3,5.4c0.4,2.6,2.6,4.6,5.2,4.6c1.1,0.2,2.2,0.2,3.3,0
			c0.6-0.2,1.2-0.2,1.9-0.4c1.9-0.5,3.4-1.7,4.4-3.3c0.4-1,0.6-2.1,0.4-3.1c-0.2-0.9-0.5-1.8-1-2.5c-1.2-1.2-2.9-1.9-4.6-1.9
			l-0.8-6.3c2.8-0.3,5.6,0.5,7.9,2.1c2.5,1.9,4,4.7,4.4,7.7c0.4,2.5,0.1,5-0.8,7.3l-1.2,1.9c-2.4,2.8-5.7,4.7-9.4,5.2
			c-3.4,0.6-6.9,0-9.8-1.9c-2.9-1.9-4.8-4.9-5.2-8.3c-0.5-3.3,0.4-6.8,2.5-9.4c1.2-1.3,2.7-2.3,4.4-2.9c0.2-0.2,0.4-0.2,0.8-0.4
			L73.8,220.4L73.8,220.4z"/>
		<path id="Pfad_15" class="st3" d="M89.5,188.5v6.5H78.8l-0.2,8.1h10.6v6.7l-25.6-0.4l0.2-6.7l9,0.2l0.2-8.1l-9.2-0.2l0.2-6.5
			L89.5,188.5z"/>
		<path id="Pfad_16" class="st3" d="M73.4,162.2l-2.3,12.9l4.4,0.8l2.1-11.9l5,1l-1.9,11.7l4.8,0.8l2.3-13.1l5.6,1L89.9,185l-25-4.4
			l3.3-19.2L73.4,162.2z"/>
		<path id="Pfad_17" class="st3" d="M85.7,145.1l1.5-3.8c0.2-0.4,0.2-0.8,0.4-1c0.3-0.9,0.1-1.9-0.4-2.7c-0.4-0.5-0.9-0.8-1.5-1
			c-3.1-1.2-4.2,1.9-4.4,2.5l-1.5,3.8L85.7,145.1L85.7,145.1z M76.1,137.2c0.2-0.7,0.5-1.3,0.8-1.9c0.9-2.7,3.1-4.7,5.8-5.2
			c1.8-0.4,3.6-0.2,5.2,0.6c3.1,1.1,5.2,3.9,5.4,7.1c0,1.5-0.4,3-1,4.4l-1.9,4.8l7.9,3.1l-2.3,5.8l-23.8-9.2L76.1,137.2L76.1,137.2z
			"/>
		<path id="Pfad_18" class="st3" d="M96.4,109.3l-5.8,10.4l4.2,2.5l5.2-9.2l4.6,2.5l-5.2,9.2l8.5,4.8l-3.3,5.6l-22.1-12.5l9.2-16.3
			L96.4,109.3z"/>
		<path id="Pfad_19" class="st3" d="M126,103.2l-11.2,14.6l-20.2-15.6l4-5.2l15.6,12.1l7.3-9.4L126,103.2z"/>
		<path id="Pfad_20" class="st3" d="M126.4,74.3l-9.2,9.2l2.9,3.1l8.5-8.5l3.8,3.8l-8.6,8.3l3.5,3.5l9.4-9.4l4,4l-14,14l-18.1-18.1
			l14-13.8L126.4,74.3z"/>
		<path id="Pfad_21" class="st3" d="M160.6,73.8l-3.3,2.5l-1.9-2.1c0,0.5,0,1-0.2,1.5c-0.5,2.3-2,4.3-4,5.6c-2,1.5-4.6,2.2-7.1,2.1
			c-4.2-0.4-7.9-2.7-10.2-6.3c-1.9-2.5-2.9-5.5-2.9-8.5c0-1.7,0.4-3.3,1-4.8c0.4-1,1.1-1.9,1.9-2.7c0.7-0.8,1.4-1.5,2.3-2.1
			c1.8-1.3,4-2,6.3-2.1c2.3,0,4.6,0.7,6.5,2.1c0.4,0.4,1,0.8,1.5,1.2l-5.2,3.8c-0.9-0.8-2.1-1.3-3.3-1.2c-0.9,0.1-1.8,0.5-2.5,1
			c-0.8,0.6-1.5,1.5-1.9,2.5c-0.7,2.5,0.1,5.2,1.9,7.1c1.3,2.2,3.5,3.7,6,4.2c1.3,0,2.5-0.4,3.5-1c1.2-0.8,2.1-2.1,2.3-3.5
			c0-1-0.2-2-0.6-2.9l-3.5,2.3l-2.9-4l8.3-6L160.6,73.8z"/>
		<path id="Pfad_22" class="st3" d="M172.2,45.3l-11.7,5.8l1.9,4l10.6-5.2l2.5,4.6l-10.8,5.2l2.3,4.6l11.9-6l2.5,5l-17.7,8.9
			l-11.2-22.9l17.5-8.8L172.2,45.3z"/>
		<path id="Pfad_23" class="st3" d="M185.8,46.7l4.4-1.5c1.2-0.4,2.7-0.8,2.9-2.5c0-0.6,0-1.1-0.2-1.7c-0.1-0.6-0.5-1.1-1-1.5
			c-1.1-0.7-2.5-0.8-3.8-0.2l-4.2,1.2L185.8,46.7L185.8,46.7z M187.9,34.2c0.5-0.2,1.1-0.4,1.7-0.4c2.3-0.8,4.8-0.4,6.7,1
			c1.2,1,2.1,2.3,2.5,3.8c0.2,0.6,0.2,1.2,0.4,1.9c0.2,2-0.6,4-2.1,5.4c1.4,0,2.7,0.6,3.5,1.7c1.3,1.8,2.2,3.8,2.9,5.8
			c0.2,1,0.8,1.9,1.7,2.5l-6.5,1.9c-0.2-0.2-0.4-0.4-0.4-0.6c-0.4-1.2-0.8-2.3-1.2-3.3c-0.2-0.4-0.4-1-0.6-1.5
			c-0.3-0.8-0.7-1.5-1.2-2.1c-1.2-0.9-2.9-1-4.2-0.2l-3.5,1l2.9,9.2l-6.3,1.9l-7.7-24.4C176.4,37.8,187.9,34.2,187.9,34.2z"/>
		<path id="Pfad_24" class="st3" d="M214.1,54.2l-6.5,1.2l-4.8-25l6.5-1.2L214.1,54.2z"/>
		<path id="Pfad_25" class="st3" d="M228.7,34.6c-0.2-2.3-2.3-2.9-4.2-2.7c0,0-3.3,0.2-3.1,2.5c0,0.8,0.5,1.5,1.2,1.7
			c1.5,0.4,3,0.7,4.6,0.8c2,0.2,4,0.8,5.8,1.7c2.1,1,3.5,3.1,3.6,5.4c0.2,2.6-0.8,5.2-2.9,6.9c-4.8,3.2-11,3.3-15.8,0.2
			c-1.7-1.6-2.7-3.7-2.9-6l6.5-0.4c0.1,1.3,0.8,2.5,1.9,3.1c1.1,0.4,2.2,0.6,3.3,0.4c1-0.1,1.9-0.3,2.7-0.8l0.6-0.6
			c0.3-0.4,0.4-0.9,0.4-1.5c-0.2-1.7-1.7-2.1-4.2-2.7l-2.7-0.7c-1.8-0.2-3.6-0.8-5.2-1.7c-1.2-0.6-2-1.8-2.3-3.1
			c-0.2-0.7-0.4-1.4-0.4-2.1c-0.2-2.4,0.8-4.8,2.7-6.2c1.8-1.5,4.1-2.3,6.5-2.3c1.1-0.2,2.2-0.2,3.3,0c2.6,0.3,4.9,1.8,6.3,4
			c0.2,1.5,0.4,2.5,0.6,3.8L228.7,34.6L228.7,34.6z"/>
		<path id="Pfad_26" class="st3" d="M256.9,36.7c-0.1-2.4-2.1-4.4-4.6-4.4c-2.6-0.2-5,1.6-5.6,4.2c-0.4,1-0.6,2.1-0.6,3.1v2.1
			c0,1.9,0.8,3.7,2.3,5c0.9,0.6,1.9,1.1,2.9,1.2c0.9,0.1,1.7-0.1,2.5-0.4c1.5-0.8,2.5-2.3,2.7-4l6.5,0.4c-0.4,2.7-1.7,5.2-3.8,7.1
			c-2.3,1.9-5.3,2.8-8.3,2.5c-2.5-0.2-4.9-1.1-6.9-2.5c-0.6-0.5-1.2-1.1-1.7-1.7c-4.3-5.9-3.9-14,1-19.4c2.5-2.4,5.9-3.6,9.4-3.3
			c3.4,0.2,6.5,1.9,8.5,4.6c1,1.4,1.7,3.1,1.9,4.8v1.2L256.9,36.7L256.9,36.7z"/>
		<path id="Pfad_27" class="st3" d="M284.4,59.2l-6.3-1.5l2.5-10.4l-7.9-1.9l-2.5,10.2l-6.3-1.5l6-24.8l6.3,1.5l-2.1,9l7.9,1.9
			l2.1-9l6.3,1.7L284.4,59.2z"/>
		<path id="Pfad_28" class="st3" d="M313.6,49.5l-12.1-5.2l-1.7,4.2l11,4.6l-2.1,4.8l-11.1-4.6l-1.9,4.6l12.3,5.2l-2.1,5.2
			l-18.3-7.7l10-23.6l17.9,7.5L313.6,49.5z"/>
		<path id="Pfad_29" class="st3" d="M323.2,71.8l2.9,2.1c0.8,0.7,1.8,1.1,2.9,1.2c2.6,0,5-1.5,6.3-3.8c2.1-2.3,2.3-5.8,0.4-8.3
			c-0.6-0.6-1.2-1.2-1.9-1.7l-2.3-1.7L323.2,71.8L323.2,71.8z M337.4,57.4c0.7,0.4,1.3,0.9,1.9,1.5c1.8,1.5,3.2,3.5,3.8,5.8
			c0.3,1,0.3,2.1,0.2,3.1c-0.2,2.6-1.2,5.1-2.7,7.3c-0.5,0.7-1,1.4-1.7,2.1c-1.6,1.9-3.7,3.2-6,4c-1.4,0.4-2.9,0.5-4.4,0.2
			c-2.1-0.5-4-1.4-5.6-2.7l-8.6-5.8l14.6-21.1L337.4,57.4L337.4,57.4z"/>
		<path id="Pfad_30" class="st3" d="M339.5,91.6l-5-4.2l16.9-19.2l5,4.2L339.5,91.6z"/>
		<path id="Pfad_31" class="st3" d="M370.3,94.7l-8.8-9.6l-3.3,2.9l8.1,8.8l-4,3.5l-7.9-8.8l-3.8,3.3l9,9.8l-4.2,3.8l-13.3-14.6
			l19-17.1l13.1,14.4L370.3,94.7z"/>
		<path id="Pfad_32" class="st3" d="M368.8,128.3l-3.5-5.2l8.5-16.1l-13.3,8.8l-3.3-5.2l21.5-14l3.5,5.4l-8.3,15.8l12.9-8.8l3.3,5.2
			L368.8,128.3z"/>
		<path id="Pfad_33" class="st3" d="M392,135.6c1.6-0.8,2.2-2.7,1.4-4.3c-0.1-0.1-0.1-0.2-0.2-0.3c0-0.1-0.1-0.2-0.2-0.2
			c0,0,0,0,0,0c0,0-1.2-3.1-3.3-2.1c-0.7,0.4-1.1,1.1-1,1.9c0,0.6,0.4,2.7,0.6,4.6c0.4,2,0.6,4,0.4,6c-0.3,2.3-1.8,4.3-4,5.2
			c-2.4,1.2-5.3,1.1-7.5-0.4c-2.1-1.4-3.7-3.4-4.6-5.8c-1.5-2.8-1.9-6.1-1-9.2c0.8-2.1,2.5-3.9,4.6-4.8l2.7,6
			c-1.2,0.4-2.1,1.4-2.3,2.7c0,1.1,0.2,2.3,0.6,3.3c0.4,0.8,1,1.6,1.7,2.3c0.2,0.2,0.5,0.2,0.8,0.2c0.5,0,1,0,1.5-0.2
			c1.7-0.8,1.2-2.3,1-4.8c0-0.9-0.2-1.8-0.4-2.7c-0.4-1.9-0.5-3.8-0.2-5.6c0.3-1.3,1-2.5,2.1-3.3c0.6-0.5,1.2-0.8,1.9-1
			c2.2-1,4.8-0.9,6.9,0.4c1.9,1.3,3.5,3.1,4.4,5.2c0.4,1,0.8,2.1,1,3.1c0.6,2.6,0,5.3-1.7,7.3c-0.8,0.9-1.8,1.6-2.9,2.1L392,135.6
			L392,135.6z"/>
		<path id="Pfad_34" class="st3" d="M403.5,163.5l-2.1-6.9l-19,5.6l-1.9-6.2l19-5.8l-2.1-6.9l5.6-1.7l6,20.2L403.5,163.5z"/>
		<path id="Pfad_35" class="st3" d="M407.4,185.6l-2.1-12.9l-4.2,0.8l1.7,11.7l-5,0.8l-1.9-11.9l-5,0.8l2.1,13.1l-5.6,0.8l-2.9-19.6
			l25.2-3.8l2.9,19.2L407.4,185.6z"/>
	</g>
	<g id="text" transform="translate(-101.691 35.916)">
		<path id="Pfad_36" class="st5" d="M107.7,357.1c4.5-0.8,9-1.1,13.6-1c5.1-0.4,10.2,1,14.4,4c3.1,2.7,4.8,6.6,4.8,10.6
			c0.2,4.1-1.3,8.1-4.2,11.1c-4.2,3.7-9.7,5.6-15.2,5.2c-1.5,0-2.9,0-4.4-0.2v18.1h-8.8L107.7,357.1z M116.4,379.6
			c1.4,0.2,2.9,0.4,4.4,0.4c6.7,0,10.6-3.1,10.6-9c0-5.8-3.8-8.3-9.8-8.3c-1.7,0-3.5,0.2-5.2,0.4L116.4,379.6z"/>
		<path id="Pfad_37" class="st5" d="M200,389.9c0.2,6.3,5.2,9,10.8,9c3.3,0.1,6.5-0.5,9.6-1.7l1.2,6c-3.9,1.4-8.1,2.1-12.3,2.1
			c-9.1,0.8-17.1-5.8-17.9-14.9c-0.1-0.9-0.1-1.9,0-2.8c0-9.6,5.8-18.8,17.1-18.8s15,9.4,15,17.1c0,1.3,0,2.5-0.2,3.8L200,389.9z
			 M215.5,383.6c0.6-4.1-2.3-7.9-6.5-8.5c-0.3,0-0.5-0.1-0.8-0.1c-4.5,0.3-8,4-8.1,8.5H215.5z"/>
		<path id="Pfad_38" class="st5" d="M262.8,369.9c-0.2,2.3-0.2,5.2-0.2,10v19.8c0,7.3-1.5,12.5-5.2,15.8c-3.9,3-8.7,4.4-13.6,4.2
			c-4.3,0.1-8.5-0.8-12.3-2.7l1.9-6.7c3.1,1.7,6.6,2.7,10.2,2.7c5.1,0.4,9.6-3.3,10.1-8.5c0.1-0.7,0-1.5-0.1-2.2v-3.1h-0.2
			c-2.3,3.3-6.2,5.3-10.2,5.2c-8.8,0-14.8-7.1-14.8-17.1c0-11.5,7.5-18.6,15.8-18.6c4.1-0.2,8.1,1.9,10.2,5.4h0.2l0.4-4.6h7.7
			L262.8,369.9z M253.6,384c0-0.8,0-1.5-0.2-2.3c-0.8-3.3-3.9-5.7-7.3-5.6c-5,0-8.5,4.4-8.5,11.5c0,6,3.1,10.8,8.5,10.8
			c3.3,0.1,6.2-2.1,7.1-5.2c0.2-1,0.4-2.1,0.4-3.1L253.6,384z"/>
		<path id="Pfad_39" class="st5" d="M278.2,389.9c0.2,6.3,5.2,9,10.8,9c3.3,0.1,6.5-0.5,9.6-1.7l1.2,6c-3.9,1.4-8.1,2.1-12.3,2.1
			c-9,0.9-17-5.7-17.9-14.7c-0.1-1-0.1-2,0-3c0-9.6,5.8-18.8,17.1-18.8c11.3,0,15,9.4,15,17.1c0,1.3,0,2.5-0.2,3.8L278.2,389.9z
			 M293.6,383.6c0.5-4.2-2.5-8-6.8-8.5c-0.2,0-0.4,0-0.5,0c-4.5,0.3-8,4-8.1,8.5H293.6z"/>
		<path id="Pfad_40" class="st5" d="M341.2,353.8v41.1c0,3.5,0.2,7.5,0.2,9.8h-7.9l-0.4-5.4h-0.2c-2.4,4.1-6.8,6.5-11.5,6.3
			c-8.3,0-15-7.1-15-17.9c0-11.7,7.3-18.8,15.6-18.8c3.8-0.3,7.5,1.5,9.8,4.6h0.2v-19.8L341.2,353.8z M332.4,384.5
			c0-0.8,0-1.5-0.2-2.3c-0.7-3.6-3.8-6.2-7.5-6.3c-5.6,0-8.8,5-8.8,11.5s3.1,11.1,8.8,11.1c3.7,0,6.8-2.6,7.5-6.3
			c0.2-0.8,0.2-1.7,0.2-2.5V384.5z"/>
		<path id="Pfad_41" class="st5" d="M360.1,360.1c0.1,2.8-2,5.1-4.8,5.2c-2.8,0.1-5.1-2-5.2-4.8c-0.1-2.8,2-5.1,4.8-5.2h0.2
			c2.6-0.2,4.8,1.7,5,4.3c0,0,0,0,0,0.1L360.1,360.1z M350.8,404.9v-34.8h9v35L350.8,404.9z"/>
		<path id="Pfad_42" class="st5" d="M388.7,404.9l-0.6-4h-0.2c-2.5,3.1-6.4,4.8-10.4,4.6c-5.7,0.2-10.6-4.1-11-9.8v-0.6
			c0-8.8,7.9-13.3,20.9-13.1v-0.6c0-2.3-1-6-7.1-6c-3.3,0-6.5,0.9-9.4,2.5l-1.7-5.8c3.9-2.1,8.3-3.2,12.7-3.1
			c11.2,0,14.4,7.1,14.4,14.8v12.7c0,2.7,0.2,5.6,0.4,8.3L388.7,404.9z M387.7,387.8c-6.3-0.2-12.1,1.2-12.1,6.5
			c-0.2,2.5,1.6,4.8,4.2,5h0.8c3.1,0,5.9-1.9,6.9-4.8c0.2-0.6,0.2-1.2,0.2-1.9L387.7,387.8z"/>
		<path id="Pfad_43" class="st5" d="M414.4,385.3L414.4,385.3c1-1.3,2-2.7,2.9-4.2l8.5-11.2h10.6l-12.9,14.4l14.8,20.6h-10.8
			l-10-15.4l-2.9,3.5v11.9h-8.8V354h8.8v31.3H414.4z"/>
		<path id="Pfad_44" class="st5" d="M475.4,387c0.8,9.5-6.3,17.8-15.8,18.5c-0.7,0.1-1.4,0.1-2.2,0c-9.3,0.4-17.2-6.9-17.5-16.2
			c0-0.6,0-1.2,0-1.7c-0.6-9.7,6.8-18,16.4-18.5c0.6,0,1.1,0,1.7,0c9.1-0.4,16.9,6.6,17.3,15.8C475.5,385.5,475.5,386.2,475.4,387z
			 M449,387.4c0,6.7,3.3,11.9,8.8,11.9c5,0,8.5-5,8.5-12.1c0-5.4-2.5-11.7-8.5-11.7C451.7,375.5,449,381.5,449,387.4z"/>
		<path id="Pfad_45" class="st5" d="M482.7,380.3c0-4,0-7.3-0.2-10.4h7.7l0.4,5.2h0.2c2.4-3.8,6.6-6.1,11.1-6c6,0,12.5,4,12.5,15
			v20.9h-8.8v-19.6c0-5-1.9-8.8-6.7-8.8c-3.2,0.1-6,2.2-6.9,5.2c-0.3,1-0.4,1.9-0.4,2.9v20.6h-9L482.7,380.3z"/>
		<path id="Pfad_46" class="st5" d="M533.2,360.1c0,2.8-2.2,5-5,5s-5-2.2-5-5c0-2.8,2.2-5,5-5C530.9,355.1,533.2,357.3,533.2,360.1z
			 M523.8,404.9v-34.8h9v35L523.8,404.9z"/>
		<path id="Pfad_47" class="st5" d="M548.4,389.9c0.2,6.3,5.2,9,10.8,9c3.3,0.1,6.5-0.5,9.6-1.7l1.2,6c-3.9,1.4-8,2.1-12.1,2.1
			c-9.2,0.8-17.3-5.9-18.1-15c-0.1-0.9-0.1-1.8,0-2.7c0-9.6,5.8-18.8,17.1-18.8s15,9.4,15,17.1c0,1.3,0,2.5-0.2,3.8L548.4,389.9z
			 M563.6,383.6c0.5-4.2-2.5-8-6.8-8.5c-0.2,0-0.4,0-0.5,0c-4.5,0.3-8,4-8.1,8.5H563.6z"/>
		<path id="Pfad_48" class="st5" d="M170.2,361.1v-6.7c0,0-2.1-0.2-3.3-0.4c-4.5-0.4-8.9,1.1-12.3,4c-3.3,2.5-5.2,6.3-5.2,10.4v1.7
			h-4.8v6.7h4.8v28.3h8.8v-28.4h7.1v-6.7h-7.1v-1.7c0-4.6,2.7-6.9,7.3-7.5C167,360.4,168.7,360.5,170.2,361.1z"/>
		<path id="Pfad_49" class="st5" d="M175.8,360.5v44.2h9v-50.9h-9"/>
	</g>
</g>
</svg>
