<?xml version="1.0" encoding="utf-8"?>
<!-- Generator: Adobe Illustrator 26.5.0, SVG Export Plug-In . SVG Version: 6.00 Build 0)  -->
<svg version="1.1" id="Ebene_1" xmlns="http://www.w3.org/2000/svg" xmlns:xlink="http://www.w3.org/1999/xlink" x="0px" y="0px"
	 viewBox="0 0 24 24" style="enable-background:new 0 0 24 24;" xml:space="preserve">
<style type="text/css">
	.st0{fill:#FFFFFF;}
</style>
<path class="st0" d="M21.8,24H2.2C1,24,0,23,0,21.8V2.2C0,1,1,0,2.2,0h19.6C23,0,24,1,24,2.2v19.6C24,23,23,24,21.8,24z"/>
<path d="M14,5.5l1.7,1.8h3.7v11.1H4.6V7.4h3.7L10,5.5H14 M14.8,3.7H9.2L7.5,5.5H4.6c-1,0-1.8,0.8-1.8,1.8v11.1c0,1,0.8,1.8,1.8,1.8
	h14.8c1,0,1.8-0.8,1.8-1.8V7.4c0-1-0.8-1.8-1.8-1.8h-2.9L14.8,3.7z M12,10.2c1.5,0,2.8,1.2,2.8,2.8s-1.2,2.8-2.8,2.8
	s-2.8-1.2-2.8-2.8S10.5,10.2,12,10.2 M12,8.3c-2.5,0-4.6,2.1-4.6,4.6s2.1,4.6,4.6,4.6s4.6-2.1,4.6-4.6S14.5,8.3,12,8.3z"/>
</svg>
