<svg xmlns="http://www.w3.org/2000/svg" xmlns:xlink="http://www.w3.org/1999/xlink" width="400" zoomAndPan="magnify" viewBox="0 0 300 299.999988" height="400" preserveAspectRatio="xMidYMid meet" version="1.0"><path fill="#ffffff" d="M 203.851562 137.183594 C 198.765625 137.183594 195.066406 139.234375 192.714844 143.332031 C 190.367188 147.433594 189.199219 154.734375 189.199219 165.214844 L 189.199219 172.535156 C 189.199219 182.949219 190.300781 190.234375 192.515625 194.367188 C 194.734375 198.5 198.464844 200.566406 203.75 200.566406 C 209.214844 200.566406 213.351562 198.132812 216.148438 193.25 L 216.148438 145 C 213.433594 139.800781 209.332031 137.183594 203.851562 137.183594 Z M 266.667969 0 L 33.332031 0 C 14.933594 0 0 14.917969 0 33.332031 L 0 266.667969 C 0 285.082031 14.933594 300 33.332031 300 L 266.667969 300 C 285.066406 300 300 285.082031 300 266.667969 L 300 33.332031 C 300 14.917969 285.066406 0 266.667969 0 Z M 121.234375 221.667969 L 101.699219 171.964844 L 82.285156 221.667969 L 48.964844 221.667969 L 83.148438 149.984375 L 49.648438 79.484375 L 82.566406 79.484375 L 101.699219 128.316406 L 120.832031 79.484375 L 153.75 79.484375 L 120.351562 149.984375 L 154.535156 221.667969 Z M 244 221.667969 L 218.898438 221.667969 L 217.632812 210.917969 C 211.964844 219.382812 204.683594 223.617188 195.75 223.617188 C 184.683594 223.617188 176.234375 219.382812 170.398438 210.917969 C 164.566406 202.449219 161.601562 190.015625 161.464844 173.617188 L 161.464844 165.617188 C 161.464844 148.300781 164.398438 135.382812 170.25 126.851562 C 176.101562 118.316406 184.632812 114.050781 195.832031 114.050781 C 203.964844 114.050781 210.75 117.566406 216.148438 124.601562 L 216.148438 71.667969 L 243.984375 71.667969 L 243.984375 221.667969 Z M 244 221.667969 " fill-opacity="1" fill-rule="nonzero"/></svg>