<svg xmlns="http://www.w3.org/2000/svg" xmlns:xlink="http://www.w3.org/1999/xlink" width="400" zoomAndPan="magnify" viewBox="0 0 300 299.999988" height="400" preserveAspectRatio="xMidYMid meet" version="1.0"><path fill="#ffffff" d="M 27.273438 0 C 12.203125 0 0 12.203125 0 27.273438 L 0 272.726562 C 0 287.796875 12.203125 300 27.273438 300 L 272.726562 300 C 287.796875 300 300 287.796875 300 272.726562 L 300 27.273438 C 300 12.203125 287.796875 0 272.726562 0 Z M 54.546875 81.710938 L 108.796875 81.710938 C 135.648438 81.710938 154.023438 100.078125 154.023438 127.203125 C 154.023438 153.859375 134.976562 172.132812 107.757812 172.132812 L 78.59375 172.132812 L 78.59375 216.238281 L 54.546875 216.238281 Z M 78.59375 101.847656 L 78.59375 152.183594 L 102.378906 152.183594 C 119.535156 152.183594 129.597656 143.238281 129.597656 127.203125 C 129.597656 110.714844 119.789062 101.847656 102.460938 101.847656 Z M 207.367188 112.179688 C 231.601562 112.179688 246.8125 122.90625 248.492188 141.449219 L 226.785156 141.449219 C 225.105469 134.277344 218.289062 129.707031 207.476562 129.707031 C 196.949219 129.707031 189.019531 134.753906 189.019531 142.117188 C 189.019531 147.898438 193.863281 151.4375 204.121094 153.753906 L 222.097656 157.855469 C 241.582031 162.234375 250.621094 170.636719 250.621094 185.636719 C 250.621094 205.230469 232.628906 218.289062 207.183594 218.289062 C 181.738281 218.289062 165.703125 207.269531 163.929688 188.726562 L 186.78125 188.726562 C 189.015625 196.28125 196.179688 200.761719 207.742188 200.761719 C 219.386719 200.761719 227.503906 195.640625 227.503906 188.085938 C 227.503906 182.304688 223.136719 178.65625 213.441406 176.5 L 195.355469 172.320312 C 175.773438 167.847656 166.566406 158.804688 166.566406 143.421875 C 166.566406 124.957031 183.3125 112.179688 207.367188 112.179688 Z M 207.367188 112.179688 " fill-opacity="1" fill-rule="nonzero"/></svg>