<svg xmlns="http://www.w3.org/2000/svg" xmlns:xlink="http://www.w3.org/1999/xlink" width="400" zoomAndPan="magnify" viewBox="0 0 300 299.999988" height="400" preserveAspectRatio="xMidYMid meet" version="1.0"><path fill="#ffffff" d="M 27.273438 0 C 12.203125 0 0 12.203125 0 27.273438 L 0 272.726562 C 0 287.796875 12.203125 300 27.273438 300 L 272.726562 300 C 287.796875 300 300 287.796875 300 272.726562 L 300 27.273438 C 300 12.203125 287.796875 0 272.726562 0 Z M 213.546875 71.5625 C 222.03125 71.5625 227.824219 76.972656 227.824219 84.347656 C 227.824219 91.726562 222.03125 97.132812 213.546875 97.132812 C 205.160156 97.132812 199.296875 91.726562 199.296875 84.347656 C 199.296875 76.972656 205.160156 71.5625 213.546875 71.5625 Z M 106.269531 81.179688 L 133.300781 81.179688 L 181.109375 215.703125 L 155.300781 215.703125 L 143.925781 181.320312 L 94.441406 181.320312 L 82.855469 215.703125 L 58.539062 215.703125 Z M 118.464844 106.800781 L 100.035156 162.277344 L 138.335938 162.277344 L 120.0625 106.800781 Z M 202.09375 113.726562 L 225.105469 113.726562 L 225.105469 215.703125 L 202.09375 215.703125 Z M 202.09375 113.726562 " fill-opacity="1" fill-rule="nonzero"/></svg>