<svg xmlns="http://www.w3.org/2000/svg" xmlns:xlink="http://www.w3.org/1999/xlink" width="400" zoomAndPan="magnify" viewBox="0 0 300 299.999988" height="400" preserveAspectRatio="xMidYMid meet" version="1.0"><path fill="#ffffff" d="M 27.273438 0 C 12.203125 0 0 12.203125 0 27.273438 L 0 272.726562 C 0 287.796875 12.203125 300 27.273438 300 L 272.726562 300 C 287.796875 300 300 287.796875 300 272.726562 L 300 27.273438 C 300 12.203125 287.796875 0 272.726562 0 Z M 200.578125 78.460938 L 223.695312 78.460938 L 223.695312 219.859375 L 201.324219 219.859375 L 201.324219 203.746094 L 199.726562 203.746094 C 193.941406 214.929688 182.199219 221.539062 168.03125 221.539062 C 142.203125 221.539062 126.082031 201.246094 126.082031 168.804688 C 126.082031 136.554688 142.300781 116.230469 168.03125 116.230469 C 182.007812 116.230469 193.59375 122.945312 199.003906 134.125 L 200.578125 134.125 Z M 76.304688 85.359375 L 100.355469 85.359375 L 100.355469 219.859375 L 76.304688 219.859375 Z M 175.222656 135.882812 C 159.472656 135.882812 149.761719 148.375 149.761719 168.882812 C 149.761719 189.488281 159.375 201.882812 175.222656 201.882812 C 191.164062 201.882812 200.84375 189.390625 200.84375 168.882812 C 200.84375 148.566406 191.066406 135.882812 175.222656 135.882812 Z M 175.222656 135.882812 " fill-opacity="1" fill-rule="nonzero"/></svg>