<?xml version="1.0" encoding="utf-8"?>
<!-- Generator: Adobe Illustrator 26.2.1, SVG Export Plug-In . SVG Version: 6.00 Build 0)  -->
<svg version="1.1" id="Ebene_1" xmlns="http://www.w3.org/2000/svg" xmlns:xlink="http://www.w3.org/1999/xlink" x="0px" y="0px"
	 viewBox="0 0 400 400" style="enable-background:new 0 0 400 400;" xml:space="preserve">
<style type="text/css">
	.st0{fill:#FFFFFF;}
</style>
<path class="st0" d="M318.1,212c0.6,60.4,53,80.5,53.6,80.7c-0.4,1.4-8.4,28.6-27.6,56.8c-16.6,24.3-33.9,48.5-61.1,49
	c-26.7,0.5-35.3-15.8-65.8-15.8c-30.5,0-40.1,15.3-65.4,16.3c-26.2,1-46.2-26.3-63-50.5c-34.3-49.5-60.4-140-25.3-201
	c17.5-30.3,48.7-49.5,82.6-50c25.8-0.5,50.1,17.3,65.8,17.3s45.3-21.4,76.4-18.3c13,0.5,49.5,5.3,73,39.6
	C359.4,137.2,317.7,161.5,318.1,212 M267.9,63.7c13.9-16.9,23.3-40.3,20.8-63.7c-20.1,0.8-44.4,13.4-58.8,30.2
	C217,45.2,205.7,69.1,208.8,92C231.1,93.7,254,80.6,267.9,63.7"/>
</svg>
