<?xml version="1.0" encoding="UTF-8"?><svg id="a" xmlns="http://www.w3.org/2000/svg" viewBox="0 0 414.46 500"><defs><style>.b,.c{fill:#fff;}.d{fill:#161e33;}.d,.c{fill-rule:evenodd;}</style></defs><path class="c" d="M142.3,500v-70.92c0-6.55,6.77-10.79,12.48-7.83l52.45,27.24,52.45-27.24c5.71-2.97,12.48,1.28,12.48,7.83v70.92"/><path class="c" d="M207.23,0c18.31,0,33.16,14.86,33.16,33.2,0,13.4-7.93,24.93-19.34,30.18v47.06h66.6c69.93,0,126.82,56.96,126.82,126.98v33.77c0,70.02-56.89,126.98-126.82,126.98H126.82C56.89,398.16,0,341.2,0,271.18v-33.77c0-70.02,56.89-126.98,126.82-126.98h66.6V63.38c-11.41-5.25-19.34-16.78-19.34-30.18C174.07,14.86,188.92,0,207.23,0Z"/><path class="d" d="M287.65,179.6H126.82c-31.89,0-57.74,25.88-57.74,57.81v33.77c0,31.93,25.85,57.81,57.74,57.81h160.83c31.89,0,57.74-25.88,57.74-57.81v-33.77c0-31.93-25.85-57.81-57.74-57.81Z"/><ellipse class="b" cx="143.68" cy="254.23" rx="33.16" ry="33.2"/><ellipse class="b" cx="270.78" cy="254.23" rx="33.16" ry="33.2"/></svg>