<?xml version="1.0" encoding="utf-8"?>
<!-- Generator: Adobe Illustrator 26.2.1, SVG Export Plug-In . SVG Version: 6.00 Build 0)  -->
<svg version="1.1" id="Ebene_1" xmlns="http://www.w3.org/2000/svg" xmlns:xlink="http://www.w3.org/1999/xlink" x="0px" y="0px"
	 viewBox="0 0 400 400" style="enable-background:new 0 0 400 400;" xml:space="preserve">
<style type="text/css">
	.st0{clip-path:url(#SVGID_00000028288499107673168400000013638099046214555280_);}
	.st1{fill:#FFFFFF;}
</style>
<g>
	<defs>
		<rect id="SVGID_1_" x="0" y="135.9" width="400" height="128"/>
	</defs>
	<clipPath id="SVGID_00000067921197542118446980000000522665149944628919_">
		<use xlink:href="#SVGID_1_"  style="overflow:visible;"/>
	</clipPath>
	<g style="clip-path:url(#SVGID_00000067921197542118446980000000522665149944628919_);">
		<path class="st1" d="M397.2,223.4c-0.7,0-1.3,0.4-1.6,1.4c-4.1,11.7-9.6,18.6-14.2,18.6c-2.6,0-3.7-2.9-3.7-7.5
			c0-11.4,6.9-35.7,10.3-46.8c0.4-1.3,0.7-2.5,0.7-3.6c0-3.2-1.8-4.8-6.1-4.8c-4.7,0-9.8,1.8-14.7,10.4c-1.7-7.6-6.8-10.9-14-10.9
			c-8.3,0-16.3,5.3-22.9,14c-6.6,8.6-14.4,11.5-20.2,10.1c4.2-10.3,5.8-17.9,5.8-23.6c0-8.9-4.4-14.3-11.6-14.3
			c-10.9,0-17.1,10.3-17.1,21.2c0,8.4,3.8,17.1,12.2,21.2c-7,15.9-17.3,30.3-21.2,30.3c-5,0-6.5-24.6-6.2-42.2
			c0.2-10.1,1-10.6,1-13.7c0-1.8-1.1-3-5.7-3c-10.7,0-14,9-14.5,19.4c-0.2,3.9-0.8,7.8-1.8,11.6c-4.5,15.9-13.7,28-19.7,28
			c-2.8,0-3.5-2.8-3.5-6.4c0-11.4,6.4-25.7,6.4-37.9c0-9-3.9-14.6-11.4-14.6c-8.7,0-20.3,10.4-31.2,29.8c3.6-14.9,5.1-29.3-5.6-29.3
			c-2.3,0-4.6,0.6-6.6,1.7c-1.4,0.7-2.3,2.1-2.2,3.6c1,15.9-12.8,56.5-25.9,56.5c-2.4,0-3.5-2.6-3.5-6.7c0-11.5,6.8-35.7,10.3-46.8
			c0.4-1.4,0.7-2.7,0.7-3.8c0-3-1.9-4.6-6.1-4.6c-4.7,0-9.8,1.8-14.7,10.4c-1.7-7.6-6.9-10.9-14-10.9c-11.8,0-24.9,12.4-30.7,28.7
			c-7.7,21.6-23.3,42.6-44.3,42.6c-19.1,0-29.1-15.8-29.1-40.9c0-36.1,26.6-65.6,46.3-65.6c9.4,0,13.9,6,13.9,15.2
			c0,11.1-6.2,16.3-6.2,20.5c0,1.3,1.1,2.6,3.2,2.6c8.6,0,18.6-10,18.6-23.7c0-13.7-11.1-23.7-30.8-23.7C32.8,135.9,0,168.6,0,210.5
			C0,243.9,16.5,264,45,264c19.4,0,36.4-15.1,45.6-32.7c1,14.6,7.7,22.2,17.8,22.2c9,0,16.3-5.3,21.8-14.8
			c2.1,9.8,7.8,14.7,15.2,14.7c8.5,0,15.5-5.3,22.3-15.3c-0.1,7.8,1.7,15.2,8.5,15.2c3.2,0,7-0.7,7.7-3.5
			c7.1-29.5,24.8-53.5,30.2-53.5c1.6,0,2,1.5,2,3.4c0,8-5.7,24.4-5.7,34.9c0,11.3,4.8,18.8,14.8,18.8c11,0,22.3-13.5,29.7-33.2
			c2.3,18.4,7.4,33.3,15.3,33.3c9.7,0,27-20.4,37.4-42.1c4.1,0.5,10.3,0.4,16.2-3.8c-2.5,6.4-4,13.3-4,20.3
			c0,20.1,9.6,25.7,17.9,25.7c9,0,16.3-5.3,21.8-14.8c1.8,8.5,6.5,14.6,15.2,14.6c13.5,0,25.3-13.8,25.3-25.1
			C400,225.3,398.7,223.4,397.2,223.4z M116.6,242.4c-5.5,0-7.6-5.5-7.6-13.7c0-14.2,9.7-38,20-38c4.5,0,6.2,5.3,6.2,11.8
			C135.2,216.9,126,242.4,116.6,242.4z M303.6,199.9c-3.3-3.9-4.4-9.1-4.4-13.8c0-5.8,2.1-10.7,4.7-10.7c2.5,0,3.3,2.5,3.3,6
			C307.2,187.2,305.1,195.7,303.6,199.9z M345.9,242.4c-5.5,0-7.6-6.3-7.6-13.7c0-13.7,9.7-38,20.1-38c4.5,0,6.1,5.2,6.1,11.8
			C364.6,216.9,355.5,242.4,345.9,242.4z"/>
	</g>
</g>
</svg>
