<svg xmlns="http://www.w3.org/2000/svg" xmlns:xlink="http://www.w3.org/1999/xlink" width="400" zoomAndPan="magnify" viewBox="0 0 300 299.999988" height="400" preserveAspectRatio="xMidYMid meet" version="1.0"><defs><clipPath id="id1"><path d="M 43.636719 58 L 256.636719 58 L 256.636719 300 L 43.636719 300 Z M 43.636719 58 " clip-rule="nonzero"/></clipPath></defs><g clip-path="url(#id1)"><path fill="#ffffff" d="M 150.042969 299.992188 L 63.136719 275.898438 L 43.769531 58.957031 L 256.578125 58.957031 L 237.199219 275.863281 L 150.046875 299.988281 Z M 150.042969 299.992188 " fill-opacity="1" fill-rule="nonzero"/></g><path fill="#ffffff" d="M 220.601562 262.050781 L 237.167969 76.695312 L 150.179688 76.691406 L 150.179688 281.542969 Z M 220.601562 262.050781 " fill-opacity="1" fill-rule="nonzero"/><path fill="#000000" d="M 88.171875 157.15625 L 90.558594 183.757812 L 150.179688 183.757812 L 150.179688 157.15625 Z M 88.171875 157.15625 " fill-opacity="1" fill-rule="nonzero"/><path fill="#000000" d="M 83.371094 103.296875 L 85.792969 129.90625 L 150.179688 129.90625 L 150.179688 103.296875 Z M 83.371094 103.296875 " fill-opacity="1" fill-rule="nonzero"/><path fill="#000000" d="M 150.179688 226.253906 L 150.0625 226.289062 L 120.390625 218.28125 L 118.492188 197.0625 L 91.75 197.0625 L 95.480469 238.84375 L 150.054688 253.972656 L 150.179688 253.9375 Z M 150.179688 226.253906 " fill-opacity="1" fill-rule="nonzero"/><path fill="#ffffff" d="M 93.855469 0 L 126.125 0 L 126.125 13.476562 L 107.347656 13.476562 L 107.347656 26.953125 L 126.125 26.953125 L 126.125 40.429688 L 93.855469 40.429688 Z M 93.855469 0 " fill-opacity="1" fill-rule="nonzero"/><path fill="#ffffff" d="M 132.578125 0 L 164.84375 0 L 164.84375 11.71875 L 146.074219 11.71875 L 146.074219 14.0625 L 164.84375 14.0625 L 164.84375 41.015625 L 132.578125 41.015625 L 132.578125 28.710938 L 151.355469 28.710938 L 151.355469 26.367188 L 132.578125 26.367188 Z M 132.578125 0 " fill-opacity="1" fill-rule="nonzero"/><path fill="#ffffff" d="M 171.300781 0 L 203.566406 0 L 203.566406 11.71875 L 184.789062 11.71875 L 184.789062 14.0625 L 203.566406 14.0625 L 203.566406 41.015625 L 171.300781 41.015625 L 171.300781 28.710938 L 190.070312 28.710938 L 190.070312 26.367188 L 171.300781 26.367188 Z M 171.300781 0 " fill-opacity="1" fill-rule="nonzero"/><path fill="#000000" d="M 212.015625 157.15625 L 216.824219 103.296875 L 150.085938 103.296875 L 150.085938 129.90625 L 187.625 129.90625 L 185.207031 157.15625 L 150.085938 157.15625 L 150.085938 183.757812 L 182.894531 183.757812 L 179.800781 218.265625 L 150.085938 226.277344 L 150.085938 253.953125 L 204.703125 238.84375 L 205.101562 234.34375 L 211.367188 164.296875 Z M 212.015625 157.15625 " fill-opacity="1" fill-rule="nonzero"/></svg>