<svg xmlns="http://www.w3.org/2000/svg" xmlns:xlink="http://www.w3.org/1999/xlink" width="400" zoomAndPan="magnify" viewBox="0 0 300 299.999988" height="400" preserveAspectRatio="xMidYMid meet" version="1.0"><path fill="#ffffff" d="M 190.914062 94.089844 L 200.523438 94.253906 L 226.632812 68.175781 L 227.898438 57.125 C 207.1875 38.695312 179.84375 27.46875 149.96875 27.46875 C 95.875 27.46875 50.21875 64.234375 36.703125 114.035156 C 39.554688 112.050781 45.648438 113.539062 45.648438 113.539062 L 97.820312 104.972656 C 97.820312 104.972656 100.5 100.539062 101.859375 100.757812 C 103.378906 99.089844 104.984375 97.503906 106.671875 96 C 108.355469 94.5 110.117188 93.089844 111.949219 91.769531 C 113.785156 90.449219 115.679688 89.230469 117.640625 88.109375 C 119.601562 86.984375 121.617188 85.96875 123.683594 85.058594 C 125.75 84.144531 127.859375 83.34375 130.007812 82.648438 C 132.160156 81.957031 134.339844 81.378906 136.550781 80.914062 C 138.761719 80.445312 140.992188 80.097656 143.238281 79.863281 C 145.488281 79.628906 147.742188 79.511719 150 79.515625 C 165.46875 79.546875 179.71875 85.007812 190.914062 94.039062 Z M 190.914062 94.089844 " fill-opacity="1" fill-rule="nonzero"/><path fill="#ffffff" d="M 263.296875 114.140625 C 257.234375 91.804688 244.742188 72.082031 227.882812 57.125 L 190.914062 94.054688 C 205.726562 105.992188 215.226562 124.261719 215.226562 144.714844 L 215.226562 151.234375 C 233.210938 151.234375 247.824219 165.859375 247.824219 183.792969 C 247.824219 201.761719 233.179688 216.355469 215.226562 216.355469 L 150.03125 216.355469 L 143.507812 222.910156 L 143.507812 261.988281 L 150.03125 268.472656 L 215.226562 268.472656 C 216.613281 268.472656 218 268.4375 219.382812 268.367188 C 220.769531 268.296875 222.152344 268.191406 223.53125 268.054688 C 224.910156 267.917969 226.289062 267.746094 227.660156 267.542969 C 229.03125 267.335938 230.394531 267.097656 231.757812 266.828125 C 233.117188 266.554688 234.46875 266.25 235.8125 265.914062 C 237.160156 265.574219 238.496094 265.203125 239.820312 264.800781 C 241.148438 264.398438 242.464844 263.960938 243.769531 263.496094 C 245.074219 263.027344 246.367188 262.527344 247.648438 261.996094 C 248.929688 261.464844 250.195312 260.902344 251.449219 260.3125 C 252.703125 259.71875 253.941406 259.09375 255.164062 258.441406 C 256.386719 257.789062 257.59375 257.105469 258.78125 256.390625 C 259.972656 255.679688 261.140625 254.9375 262.296875 254.167969 C 263.449219 253.398438 264.582031 252.601562 265.695312 251.773438 C 266.808594 250.949219 267.902344 250.097656 268.972656 249.21875 C 270.046875 248.339844 271.09375 247.433594 272.121094 246.503906 C 273.148438 245.574219 274.152344 244.617188 275.132812 243.640625 C 276.113281 242.660156 277.070312 241.65625 278.003906 240.628906 C 278.933594 239.605469 279.839844 238.554688 280.71875 237.484375 C 281.601562 236.414062 282.453125 235.324219 283.28125 234.210938 C 284.105469 233.097656 284.90625 231.964844 285.675781 230.8125 C 286.445312 229.664062 287.1875 228.492188 287.902344 227.304688 C 288.617188 226.117188 289.300781 224.914062 289.953125 223.691406 C 290.609375 222.46875 291.234375 221.234375 291.828125 219.980469 C 292.421875 218.730469 292.984375 217.464844 293.515625 216.183594 C 294.046875 214.90625 294.546875 213.613281 295.015625 212.308594 C 295.484375 211.003906 295.917969 209.691406 296.324219 208.367188 C 296.726562 207.039062 297.097656 205.707031 297.433594 204.363281 C 297.773438 203.019531 298.078125 201.667969 298.351562 200.308594 C 298.621094 198.953125 298.863281 197.585938 299.066406 196.21875 C 299.273438 194.847656 299.441406 193.472656 299.582031 192.09375 C 299.71875 190.714844 299.820312 189.335938 299.890625 187.953125 C 299.960938 186.566406 299.996094 185.183594 300 183.796875 C 299.96875 154.980469 285.46875 129.484375 263.296875 114.144531 Z M 263.296875 114.140625 " fill-opacity="1" fill-rule="nonzero"/><path fill="#ffffff" d="M 84.773438 268.515625 L 149.929688 268.515625 L 149.929688 216.355469 L 84.773438 216.355469 C 80.089844 216.355469 75.617188 215.386719 71.359375 213.441406 L 61.949219 216.320312 L 35.839844 242.402344 L 33.554688 251.207031 C 37.207031 253.988281 41.0625 256.460938 45.121094 258.613281 C 49.179688 260.769531 53.382812 262.582031 57.738281 264.050781 C 62.09375 265.519531 66.539062 266.625 71.074219 267.367188 C 75.609375 268.109375 80.171875 268.480469 84.769531 268.476562 Z M 84.773438 268.515625 " fill-opacity="1" fill-rule="nonzero"/><path fill="#ffffff" d="M 84.773438 99.15625 C 83.386719 99.160156 82 99.195312 80.617188 99.265625 C 79.230469 99.332031 77.847656 99.4375 76.46875 99.574219 C 75.089844 99.710938 73.710938 99.882812 72.339844 100.089844 C 70.96875 100.292969 69.605469 100.53125 68.242188 100.804688 C 66.882812 101.074219 65.53125 101.378906 64.1875 101.71875 C 62.839844 102.054688 61.503906 102.425781 60.179688 102.828125 C 58.851562 103.230469 57.535156 103.667969 56.230469 104.136719 C 54.925781 104.601562 53.632812 105.101562 52.351562 105.632812 C 51.070312 106.164062 49.804688 106.726562 48.550781 107.320312 C 47.296875 107.914062 46.058594 108.535156 44.835938 109.1875 C 43.613281 109.84375 42.40625 110.527344 41.21875 111.238281 C 40.027344 111.953125 38.859375 112.691406 37.703125 113.460938 C 36.550781 114.234375 35.417969 115.03125 34.304688 115.855469 C 33.191406 116.679688 32.097656 117.535156 31.027344 118.414062 C 29.953125 119.292969 28.90625 120.195312 27.878906 121.125 C 26.851562 122.058594 25.847656 123.011719 24.867188 123.992188 C 23.886719 124.972656 22.929688 125.972656 21.996094 127 C 21.066406 128.027344 20.160156 129.074219 19.28125 130.144531 C 18.398438 131.214844 17.546875 132.308594 16.71875 133.421875 C 15.894531 134.53125 15.09375 135.664062 14.324219 136.816406 C 13.554688 137.96875 12.8125 139.136719 12.097656 140.324219 C 11.382812 141.511719 10.699219 142.71875 10.046875 143.9375 C 9.390625 145.160156 8.765625 146.398438 8.171875 147.648438 C 7.578125 148.902344 7.015625 150.167969 6.484375 151.445312 C 5.953125 152.726562 5.453125 154.015625 4.984375 155.320312 C 4.515625 156.625 4.082031 157.9375 3.675781 159.265625 C 3.273438 160.589844 2.902344 161.925781 2.566406 163.265625 C 2.226562 164.609375 1.921875 165.960938 1.648438 167.320312 C 1.378906 168.679688 1.136719 170.042969 0.933594 171.414062 C 0.726562 172.78125 0.558594 174.15625 0.417969 175.535156 C 0.28125 176.914062 0.179688 178.292969 0.109375 179.679688 C 0.0390625 181.0625 0.00390625 182.445312 0 183.832031 C 0 211.332031 13.1875 235.78125 33.589844 251.269531 L 71.390625 213.511719 C 69.96875 212.871094 68.597656 212.132812 67.28125 211.296875 C 65.964844 210.457031 64.714844 209.53125 63.53125 208.515625 C 62.347656 207.496094 61.242188 206.402344 60.214844 205.226562 C 59.191406 204.050781 58.253906 202.808594 57.40625 201.5 C 56.558594 200.191406 55.808594 198.828125 55.15625 197.410156 C 54.503906 195.992188 53.957031 194.539062 53.515625 193.042969 C 53.074219 191.546875 52.738281 190.027344 52.515625 188.484375 C 52.289062 186.941406 52.179688 185.390625 52.175781 183.832031 C 52.175781 165.867188 66.820312 151.269531 84.773438 151.269531 C 97.992188 151.269531 109.355469 159.230469 114.492188 170.46875 L 152.292969 132.710938 C 136.789062 112.328125 112.308594 99.15625 84.777344 99.15625 Z M 84.773438 99.15625 " fill-opacity="1" fill-rule="nonzero"/></svg>