<svg xmlns="http://www.w3.org/2000/svg" xmlns:xlink="http://www.w3.org/1999/xlink" width="400" zoomAndPan="magnify" viewBox="0 0 300 299.999988" height="400" preserveAspectRatio="xMidYMid meet" version="1.0"><defs><clipPath id="id1"><path d="M 46.363281 0 L 253.363281 0 L 253.363281 300 L 46.363281 300 Z M 46.363281 0 " clip-rule="nonzero"/></clipPath></defs><path fill="#ffffff" d="M 154.316406 166.589844 C 154.316406 166.882812 154.289062 167.171875 154.230469 167.457031 C 154.175781 167.746094 154.089844 168.023438 153.976562 168.296875 C 153.867188 168.566406 153.730469 168.824219 153.566406 169.066406 C 153.402344 169.308594 153.21875 169.535156 153.011719 169.742188 C 152.804688 169.949219 152.582031 170.132812 152.335938 170.296875 C 152.09375 170.460938 151.839844 170.597656 151.566406 170.707031 C 151.296875 170.820312 151.019531 170.90625 150.734375 170.960938 C 150.445312 171.019531 150.15625 171.046875 149.863281 171.046875 C 149.570312 171.046875 149.28125 171.019531 148.996094 170.960938 C 148.707031 170.90625 148.429688 170.820312 148.160156 170.707031 C 147.890625 170.597656 147.632812 170.460938 147.390625 170.296875 C 147.144531 170.132812 146.921875 169.949219 146.714844 169.742188 C 146.507812 169.535156 146.324219 169.308594 146.160156 169.066406 C 146 168.824219 145.859375 168.566406 145.75 168.296875 C 145.636719 168.023438 145.550781 167.746094 145.496094 167.457031 C 145.4375 167.171875 145.410156 166.882812 145.410156 166.589844 C 145.410156 166.296875 145.4375 166.007812 145.496094 165.71875 C 145.550781 165.429688 145.636719 165.152344 145.75 164.882812 C 145.859375 164.613281 146 164.355469 146.160156 164.109375 C 146.324219 163.867188 146.507812 163.640625 146.714844 163.433594 C 146.921875 163.226562 147.144531 163.042969 147.390625 162.882812 C 147.632812 162.71875 147.890625 162.582031 148.160156 162.46875 C 148.429688 162.355469 148.707031 162.273438 148.996094 162.214844 C 149.28125 162.15625 149.570312 162.128906 149.863281 162.128906 C 150.15625 162.128906 150.445312 162.15625 150.734375 162.214844 C 151.019531 162.273438 151.296875 162.355469 151.566406 162.46875 C 151.839844 162.582031 152.09375 162.71875 152.335938 162.882812 C 152.582031 163.042969 152.804688 163.226562 153.011719 163.433594 C 153.21875 163.640625 153.402344 163.867188 153.566406 164.109375 C 153.730469 164.355469 153.867188 164.613281 153.976562 164.882812 C 154.089844 165.152344 154.175781 165.429688 154.230469 165.71875 C 154.289062 166.007812 154.316406 166.296875 154.316406 166.589844 Z M 154.316406 166.589844 " fill-opacity="1" fill-rule="nonzero"/><path fill="#ffffff" d="M 154.316406 184.210938 C 154.316406 184.503906 154.289062 184.792969 154.230469 185.082031 C 154.175781 185.367188 154.089844 185.648438 153.976562 185.917969 C 153.867188 186.1875 153.730469 186.445312 153.566406 186.6875 C 153.402344 186.933594 153.21875 187.15625 153.011719 187.363281 C 152.804688 187.570312 152.582031 187.757812 152.335938 187.917969 C 152.09375 188.082031 151.839844 188.21875 151.566406 188.332031 C 151.296875 188.445312 151.019531 188.527344 150.734375 188.585938 C 150.445312 188.644531 150.15625 188.671875 149.863281 188.671875 C 149.570312 188.671875 149.28125 188.644531 148.996094 188.585938 C 148.707031 188.527344 148.429688 188.445312 148.160156 188.332031 C 147.890625 188.21875 147.632812 188.082031 147.390625 187.917969 C 147.144531 187.757812 146.921875 187.570312 146.714844 187.363281 C 146.507812 187.15625 146.324219 186.933594 146.160156 186.6875 C 146 186.445312 145.859375 186.1875 145.75 185.917969 C 145.636719 185.648438 145.550781 185.367188 145.496094 185.082031 C 145.4375 184.792969 145.410156 184.503906 145.410156 184.210938 C 145.410156 183.917969 145.4375 183.628906 145.496094 183.34375 C 145.550781 183.054688 145.636719 182.777344 145.75 182.503906 C 145.859375 182.234375 146 181.976562 146.160156 181.734375 C 146.324219 181.492188 146.507812 181.265625 146.714844 181.058594 C 146.921875 180.851562 147.144531 180.667969 147.390625 180.503906 C 147.632812 180.339844 147.890625 180.203125 148.160156 180.09375 C 148.429688 179.980469 148.707031 179.894531 148.996094 179.839844 C 149.28125 179.78125 149.570312 179.753906 149.863281 179.753906 C 150.15625 179.753906 150.445312 179.78125 150.734375 179.839844 C 151.019531 179.894531 151.296875 179.980469 151.566406 180.09375 C 151.839844 180.203125 152.09375 180.339844 152.335938 180.503906 C 152.582031 180.667969 152.804688 180.851562 153.011719 181.058594 C 153.21875 181.265625 153.402344 181.492188 153.566406 181.734375 C 153.730469 181.976562 153.867188 182.234375 153.976562 182.503906 C 154.089844 182.777344 154.175781 183.054688 154.230469 183.34375 C 154.289062 183.628906 154.316406 183.917969 154.316406 184.210938 Z M 154.316406 184.210938 " fill-opacity="1" fill-rule="nonzero"/><g clip-path="url(#id1)"><path fill="#ffffff" d="M 181.109375 139.511719 L 200.347656 121.925781 L 209.578125 113.539062 C 226.25 98.484375 234.515625 78.078125 234.835938 51.074219 L 234.835938 28.386719 L 248.804688 28.386719 C 249.101562 28.390625 249.394531 28.371094 249.6875 28.316406 C 249.980469 28.265625 250.265625 28.1875 250.539062 28.078125 C 250.816406 27.96875 251.078125 27.832031 251.328125 27.671875 C 251.578125 27.511719 251.808594 27.324219 252.023438 27.117188 C 252.234375 26.910156 252.425781 26.683594 252.589844 26.4375 C 252.757812 26.191406 252.898438 25.929688 253.015625 25.65625 C 253.128906 25.382812 253.21875 25.101562 253.277344 24.808594 C 253.335938 24.519531 253.363281 24.222656 253.363281 23.925781 L 253.363281 4.625 C 253.363281 4.332031 253.335938 4.042969 253.277344 3.757812 C 253.222656 3.46875 253.136719 3.191406 253.023438 2.917969 C 252.914062 2.648438 252.777344 2.390625 252.613281 2.148438 C 252.449219 1.90625 252.265625 1.679688 252.058594 1.472656 C 251.851562 1.265625 251.628906 1.082031 251.382812 0.917969 C 251.140625 0.753906 250.882812 0.617188 250.613281 0.507812 C 250.34375 0.394531 250.066406 0.308594 249.777344 0.253906 C 249.492188 0.195312 249.203125 0.167969 248.910156 0.167969 L 50.886719 0.167969 C 50.597656 0.167969 50.304688 0.195312 50.019531 0.253906 C 49.734375 0.308594 49.453125 0.394531 49.183594 0.507812 C 48.914062 0.617188 48.65625 0.753906 48.414062 0.917969 C 48.171875 1.082031 47.945312 1.265625 47.738281 1.472656 C 47.53125 1.679688 47.347656 1.90625 47.183594 2.148438 C 47.023438 2.390625 46.886719 2.648438 46.773438 2.917969 C 46.660156 3.191406 46.578125 3.46875 46.519531 3.757812 C 46.464844 4.042969 46.433594 4.332031 46.433594 4.625 L 46.433594 23.925781 C 46.433594 24.21875 46.464844 24.507812 46.519531 24.796875 C 46.578125 25.082031 46.660156 25.363281 46.773438 25.632812 C 46.886719 25.902344 47.023438 26.160156 47.183594 26.402344 C 47.347656 26.648438 47.53125 26.871094 47.738281 27.078125 C 47.945312 27.285156 48.171875 27.472656 48.414062 27.632812 C 48.65625 27.796875 48.914062 27.933594 49.183594 28.046875 C 49.453125 28.15625 49.734375 28.242188 50.019531 28.300781 C 50.304688 28.355469 50.597656 28.386719 50.886719 28.386719 L 64.855469 28.386719 L 64.855469 51.003906 C 65.175781 77.9375 73.476562 98.34375 90.152344 113.363281 L 100.839844 123.136719 L 118.652344 139.40625 C 119.578125 140.101562 120.421875 140.890625 121.179688 141.765625 C 121.9375 142.644531 122.59375 143.59375 123.152344 144.613281 C 123.707031 145.628906 124.148438 146.695312 124.480469 147.808594 C 124.808594 148.921875 125.015625 150.054688 125.101562 151.214844 C 124.988281 152.40625 124.75 153.574219 124.390625 154.71875 C 124.027344 155.863281 123.550781 156.957031 122.957031 157.996094 C 122.367188 159.039062 121.671875 160.007812 120.871094 160.902344 C 120.074219 161.796875 119.191406 162.597656 118.226562 163.304688 L 90.078125 189.0625 C 73.40625 204.082031 65.140625 224.488281 64.785156 251.496094 L 64.785156 271.1875 L 50.886719 271.1875 C 50.589844 271.1875 50.296875 271.214844 50.007812 271.273438 C 49.714844 271.332031 49.433594 271.421875 49.160156 271.535156 C 48.886719 271.652344 48.625 271.792969 48.378906 271.960938 C 48.136719 272.128906 47.910156 272.316406 47.699219 272.53125 C 47.492188 272.742188 47.308594 272.972656 47.148438 273.222656 C 46.988281 273.472656 46.851562 273.738281 46.742188 274.011719 C 46.632812 274.289062 46.554688 274.574219 46.5 274.867188 C 46.449219 275.160156 46.429688 275.457031 46.433594 275.753906 L 46.433594 295.054688 C 46.433594 295.347656 46.464844 295.636719 46.519531 295.921875 C 46.578125 296.210938 46.660156 296.488281 46.773438 296.757812 C 46.886719 297.03125 47.023438 297.285156 47.183594 297.53125 C 47.347656 297.773438 47.53125 298 47.738281 298.207031 C 47.945312 298.414062 48.171875 298.597656 48.414062 298.761719 C 48.65625 298.921875 48.914062 299.0625 49.183594 299.171875 C 49.453125 299.285156 49.734375 299.371094 50.019531 299.425781 C 50.304688 299.484375 50.597656 299.511719 50.886719 299.511719 L 248.804688 299.511719 C 249.105469 299.519531 249.402344 299.496094 249.699219 299.441406 C 249.996094 299.390625 250.285156 299.308594 250.566406 299.195312 C 250.84375 299.082031 251.113281 298.941406 251.363281 298.777344 C 251.613281 298.609375 251.847656 298.421875 252.0625 298.207031 C 252.273438 297.992188 252.464844 297.761719 252.628906 297.507812 C 252.796875 297.257812 252.933594 296.992188 253.046875 296.710938 C 253.160156 296.429688 253.242188 296.140625 253.292969 295.84375 C 253.347656 295.546875 253.371094 295.246094 253.363281 294.945312 L 253.363281 275.753906 C 253.363281 275.460938 253.335938 275.171875 253.277344 274.882812 C 253.222656 274.597656 253.136719 274.316406 253.023438 274.046875 C 252.914062 273.777344 252.777344 273.519531 252.613281 273.277344 C 252.449219 273.03125 252.265625 272.808594 252.058594 272.601562 C 251.851562 272.394531 251.628906 272.207031 251.382812 272.046875 C 251.140625 271.882812 250.882812 271.746094 250.613281 271.632812 C 250.34375 271.519531 250.066406 271.4375 249.777344 271.378906 C 249.492188 271.320312 249.203125 271.292969 248.910156 271.292969 L 234.835938 271.292969 L 234.835938 251.421875 C 234.515625 224.488281 226.25 204.082031 209.578125 189.0625 L 181.394531 163.269531 C 180.4375 162.570312 179.5625 161.777344 178.773438 160.890625 C 177.984375 160 177.292969 159.042969 176.707031 158.007812 C 176.121094 156.976562 175.648438 155.890625 175.292969 154.757812 C 174.933594 153.625 174.703125 152.46875 174.589844 151.285156 C 174.6875 150.128906 174.90625 148.996094 175.242188 147.886719 C 175.578125 146.777344 176.03125 145.714844 176.589844 144.699219 C 177.152344 143.683594 177.816406 142.742188 178.578125 141.867188 C 179.339844 140.992188 180.183594 140.207031 181.109375 139.511719 Z M 165.683594 151.320312 C 165.78125 153.128906 166.066406 154.90625 166.546875 156.648438 C 167.027344 158.394531 167.683594 160.070312 168.523438 161.675781 C 169.363281 163.277344 170.363281 164.773438 171.523438 166.160156 C 172.683594 167.550781 173.980469 168.796875 175.410156 169.90625 L 203.484375 195.664062 C 218.449219 209.148438 225.539062 226.914062 225.824219 251.496094 L 225.824219 271.1875 L 73.761719 271.1875 L 73.761719 251.53125 C 74.082031 226.914062 81.171875 209.148438 96.136719 195.664062 L 124.28125 169.941406 C 125.722656 168.824219 127.027344 167.566406 128.195312 166.167969 C 129.363281 164.769531 130.371094 163.261719 131.21875 161.644531 C 132.0625 160.03125 132.726562 158.34375 133.210938 156.582031 C 133.691406 154.824219 133.980469 153.035156 134.082031 151.214844 C 133.992188 149.445312 133.714844 147.710938 133.25 146.003906 C 132.785156 144.300781 132.140625 142.664062 131.324219 141.097656 C 130.507812 139.527344 129.53125 138.066406 128.398438 136.710938 C 127.265625 135.355469 126 134.136719 124.601562 133.054688 L 106.789062 116.785156 L 96.101562 107.011719 C 81.171875 93.527344 74.082031 75.761719 73.761719 51.179688 L 73.761719 28.386719 L 225.929688 28.386719 L 225.929688 51.003906 C 225.644531 75.617188 218.554688 93.382812 203.589844 106.871094 C 200.492188 109.652344 197.425781 112.46875 194.328125 115.324219 L 174.980469 133.054688 C 173.605469 134.160156 172.359375 135.398438 171.246094 136.769531 C 170.132812 138.140625 169.175781 139.613281 168.375 141.1875 C 167.570312 142.761719 166.945312 144.402344 166.492188 146.109375 C 166.039062 147.820312 165.769531 149.554688 165.683594 151.320312 Z M 165.683594 151.320312 " fill-opacity="1" fill-rule="nonzero"/></g><path fill="#ffffff" d="M 208.507812 86.675781 C 208.746094 86.261719 208.914062 85.820312 209.011719 85.347656 C 209.105469 84.878906 209.125 84.40625 209.066406 83.929688 C 209.011719 83.453125 208.878906 83 208.671875 82.566406 C 208.46875 82.132812 208.199219 81.742188 207.867188 81.398438 C 207.539062 81.042969 207.167969 80.753906 206.742188 80.523438 C 206.320312 80.292969 205.875 80.136719 205.398438 80.058594 C 204.925781 79.976562 204.453125 79.976562 203.976562 80.050781 C 203.503906 80.128906 203.054688 80.28125 202.628906 80.503906 C 185.0625 89.460938 178.472656 92.8125 151.21875 84.074219 C 146.890625 82.660156 142.46875 81.675781 137.953125 81.109375 C 133.433594 80.546875 128.90625 80.417969 124.367188 80.722656 C 119.824219 81.03125 115.355469 81.765625 110.953125 82.925781 C 106.550781 84.089844 102.300781 85.660156 98.203125 87.640625 C 97.902344 87.785156 97.617188 87.957031 97.355469 88.164062 C 97.09375 88.371094 96.855469 88.605469 96.648438 88.863281 C 96.4375 89.125 96.257812 89.40625 96.109375 89.707031 C 95.964844 90.003906 95.851562 90.320312 95.773438 90.644531 C 95.695312 90.96875 95.65625 91.300781 95.652344 91.632812 C 95.652344 91.96875 95.6875 92.300781 95.757812 92.625 C 95.828125 92.953125 95.933594 93.265625 96.078125 93.570312 C 96.21875 93.871094 96.394531 94.15625 96.597656 94.417969 C 98.308594 96.453125 137.074219 133.660156 137.429688 133.660156 C 138.867188 135.3125 140.011719 137.148438 140.863281 139.167969 C 141.714844 141.183594 142.234375 143.285156 142.417969 145.46875 C 142.476562 145.917969 142.574219 146.359375 142.714844 146.789062 C 142.855469 147.222656 143.039062 147.636719 143.257812 148.03125 C 143.480469 148.429688 143.734375 148.800781 144.027344 149.148438 C 144.316406 149.496094 144.636719 149.8125 144.988281 150.097656 C 145.339844 150.386719 145.71875 150.636719 146.117188 150.851562 C 146.515625 151.066406 146.929688 151.238281 147.363281 151.375 C 147.796875 151.511719 148.238281 151.601562 148.6875 151.652344 C 149.140625 151.703125 149.589844 151.710938 150.042969 151.675781 C 150.46875 151.71875 150.898438 151.71875 151.328125 151.675781 C 151.753906 151.632812 152.175781 151.546875 152.585938 151.417969 C 153 151.292969 153.394531 151.128906 153.773438 150.921875 C 154.152344 150.71875 154.503906 150.476562 154.835938 150.203125 C 155.167969 149.925781 155.46875 149.621094 155.738281 149.285156 C 156.011719 148.953125 156.246094 148.59375 156.445312 148.210938 C 156.644531 147.832031 156.808594 147.433594 156.929688 147.019531 C 157.050781 146.605469 157.128906 146.183594 157.167969 145.753906 C 157.511719 142.90625 158.359375 140.214844 159.710938 137.6875 C 161.0625 135.15625 162.828125 132.957031 165.003906 131.09375 C 165.609375 130.558594 168.105469 128.167969 171.488281 124.921875 C 179.828125 116.929688 193.722656 103.515625 197.535156 100.164062 C 201.917969 96.261719 205.578125 91.765625 208.507812 86.675781 Z M 208.507812 86.675781 " fill-opacity="1" fill-rule="nonzero"/><path fill="#ffffff" d="M 88.511719 256.917969 C 88.503906 257.21875 88.527344 257.515625 88.582031 257.8125 C 88.632812 258.105469 88.714844 258.394531 88.824219 258.671875 C 88.9375 258.953125 89.074219 259.21875 89.238281 259.46875 C 89.402344 259.71875 89.589844 259.953125 89.800781 260.164062 C 90.015625 260.378906 90.246094 260.570312 90.492188 260.734375 C 90.742188 260.902344 91.007812 261.042969 91.285156 261.15625 C 91.5625 261.269531 91.847656 261.351562 92.144531 261.40625 C 92.4375 261.460938 92.738281 261.488281 93.035156 261.484375 L 206.726562 261.484375 C 207.019531 261.484375 207.308594 261.453125 207.59375 261.398438 C 207.882812 261.339844 208.160156 261.253906 208.429688 261.144531 C 208.699219 261.03125 208.957031 260.894531 209.199219 260.730469 C 209.445312 260.570312 209.667969 260.382812 209.875 260.175781 C 210.082031 259.96875 210.265625 259.746094 210.429688 259.5 C 210.59375 259.257812 210.730469 259 210.839844 258.730469 C 210.953125 258.460938 211.039062 258.179688 211.09375 257.894531 C 211.152344 257.605469 211.179688 257.316406 211.179688 257.023438 C 211.132812 255.042969 210.988281 253.070312 210.75 251.101562 C 210.511719 249.136719 210.179688 247.1875 209.753906 245.25 C 209.328125 243.316406 208.808594 241.40625 208.195312 239.523438 C 207.585938 237.640625 206.882812 235.789062 206.09375 233.972656 C 205.304688 232.15625 204.429688 230.382812 203.464844 228.652344 C 202.503906 226.921875 201.460938 225.238281 200.339844 223.609375 C 199.214844 221.980469 198.015625 220.40625 196.738281 218.890625 C 195.464844 217.378906 194.117188 215.929688 192.703125 214.546875 C 191.285156 213.160156 189.808594 211.847656 188.265625 210.609375 C 186.722656 209.367188 185.125 208.203125 183.46875 207.117188 C 181.8125 206.035156 180.109375 205.03125 178.359375 204.109375 C 176.605469 203.1875 174.816406 202.355469 172.980469 201.609375 C 171.148438 200.859375 169.285156 200.203125 167.390625 199.636719 C 165.492188 199.070312 163.574219 198.597656 161.632812 198.21875 C 159.691406 197.835938 157.738281 197.550781 155.765625 197.359375 C 153.796875 197.167969 151.824219 197.074219 149.847656 197.074219 C 147.867188 197.074219 145.894531 197.167969 143.925781 197.359375 C 141.953125 197.550781 140 197.835938 138.058594 198.21875 C 136.117188 198.597656 134.199219 199.070312 132.300781 199.636719 C 130.40625 200.203125 128.542969 200.859375 126.710938 201.609375 C 124.878906 202.355469 123.085938 203.1875 121.332031 204.109375 C 119.582031 205.03125 117.878906 206.035156 116.222656 207.117188 C 114.566406 208.203125 112.96875 209.367188 111.425781 210.609375 C 109.882812 211.847656 108.40625 213.160156 106.988281 214.546875 C 105.574219 215.929688 104.226562 217.378906 102.953125 218.890625 C 101.675781 220.40625 100.476562 221.980469 99.351562 223.609375 C 98.230469 225.238281 97.1875 226.921875 96.226562 228.652344 C 95.261719 230.382812 94.386719 232.15625 93.597656 233.972656 C 92.808594 235.789062 92.105469 237.640625 91.496094 239.523438 C 90.882812 241.40625 90.367188 243.316406 89.9375 245.25 C 89.511719 247.1875 89.179688 249.136719 88.941406 251.101562 C 88.703125 253.070312 88.558594 255.042969 88.511719 257.023438 Z M 88.511719 256.917969 " fill-opacity="1" fill-rule="nonzero"/></svg>