<svg xmlns="http://www.w3.org/2000/svg" xmlns:xlink="http://www.w3.org/1999/xlink" width="400" zoomAndPan="magnify" viewBox="0 0 300 299.999988" height="400" preserveAspectRatio="xMidYMid meet" version="1.0"><defs><clipPath id="id1"><path d="M 4.089844 0 L 295.839844 0 L 295.839844 300 L 4.089844 300 Z M 4.089844 0 " clip-rule="nonzero"/></clipPath></defs><g clip-path="url(#id1)"><path fill="#ffffff" d="M 150.371094 299.542969 C 148.625 299.550781 146.921875 299.28125 145.261719 298.734375 L 48.28125 266.398438 C 46.851562 265.921875 45.515625 265.257812 44.269531 264.410156 C 43.023438 263.558594 41.921875 262.550781 40.957031 261.390625 C 39.996094 260.234375 39.207031 258.960938 38.601562 257.582031 C 37.992188 256.203125 37.585938 254.765625 37.378906 253.273438 L 5.050781 18.855469 C 4.972656 18.285156 4.925781 17.710938 4.90625 17.136719 C 4.886719 16.558594 4.898438 15.984375 4.945312 15.410156 C 4.988281 14.835938 5.0625 14.265625 5.164062 13.699219 C 5.269531 13.132812 5.402344 12.570312 5.566406 12.019531 C 5.730469 11.46875 5.925781 10.925781 6.148438 10.394531 C 6.367188 9.863281 6.617188 9.34375 6.894531 8.839844 C 7.171875 8.332031 7.476562 7.84375 7.808594 7.371094 C 8.136719 6.898438 8.492188 6.445312 8.867188 6.011719 C 9.246094 5.578125 9.648438 5.164062 10.070312 4.773438 C 10.492188 4.378906 10.933594 4.011719 11.394531 3.667969 C 11.859375 3.324219 12.335938 3.003906 12.832031 2.710938 C 13.328125 2.417969 13.839844 2.152344 14.363281 1.910156 C 14.886719 1.671875 15.421875 1.464844 15.96875 1.28125 C 16.515625 1.101562 17.070312 0.949219 17.636719 0.824219 C 18.199219 0.703125 18.765625 0.613281 19.339844 0.550781 C 19.910156 0.488281 20.488281 0.457031 21.0625 0.457031 L 279.675781 0.457031 C 280.253906 0.457031 280.828125 0.488281 281.398438 0.550781 C 281.972656 0.613281 282.539062 0.703125 283.101562 0.824219 C 283.664062 0.949219 284.21875 1.097656 284.765625 1.28125 C 285.3125 1.460938 285.847656 1.671875 286.371094 1.910156 C 286.894531 2.148438 287.402344 2.414062 287.898438 2.707031 C 288.394531 3 288.871094 3.316406 289.335938 3.664062 C 289.796875 4.007812 290.238281 4.375 290.660156 4.765625 C 291.082031 5.15625 291.480469 5.570312 291.859375 6.003906 C 292.238281 6.4375 292.59375 6.890625 292.921875 7.363281 C 293.253906 7.832031 293.554688 8.320312 293.832031 8.824219 C 294.109375 9.328125 294.359375 9.847656 294.582031 10.378906 C 294.804688 10.910156 295 11.449219 295.164062 12.003906 C 295.328125 12.554688 295.464844 13.113281 295.566406 13.679688 C 295.671875 14.246094 295.746094 14.816406 295.792969 15.390625 C 295.835938 15.964844 295.847656 16.539062 295.832031 17.113281 C 295.8125 17.6875 295.765625 18.261719 295.6875 18.832031 L 263.359375 253.25 C 263.15625 254.746094 262.75 256.183594 262.144531 257.566406 C 261.535156 258.949219 260.75 260.21875 259.789062 261.382812 C 258.824219 262.542969 257.71875 263.550781 256.472656 264.40625 C 255.230469 265.257812 253.890625 265.921875 252.457031 266.398438 L 155.476562 298.734375 C 153.820312 299.28125 152.117188 299.550781 150.371094 299.542969 Z M 68.035156 238.917969 L 150.371094 266.335938 L 232.707031 238.851562 L 261.128906 32.792969 L 39.652344 32.792969 Z M 68.035156 238.917969 " fill-opacity="1" fill-rule="nonzero"/></g><path fill="#ffffff" d="M 150.371094 230.832031 C 148.789062 230.832031 147.238281 230.605469 145.722656 230.15625 L 105.3125 218.03125 C 103.910156 217.609375 102.589844 217.007812 101.347656 216.226562 C 100.109375 215.445312 98.996094 214.511719 98.007812 213.425781 C 97.019531 212.34375 96.199219 211.144531 95.535156 209.835938 C 94.875 208.527344 94.402344 207.15625 94.113281 205.71875 L 92.496094 197.636719 C 92.296875 196.625 92.191406 195.605469 92.183594 194.578125 C 92.179688 193.546875 92.269531 192.527344 92.457031 191.515625 C 92.644531 190.503906 92.925781 189.519531 93.304688 188.558594 C 93.679688 187.601562 94.144531 186.6875 94.695312 185.816406 C 95.246094 184.949219 95.875 184.140625 96.578125 183.390625 C 97.285156 182.640625 98.054688 181.964844 98.890625 181.363281 C 99.722656 180.757812 100.609375 180.242188 101.542969 179.808594 C 102.476562 179.375 103.441406 179.035156 104.441406 178.785156 C 105.4375 178.535156 106.453125 178.382812 107.480469 178.328125 C 108.507812 178.273438 109.53125 178.316406 110.550781 178.457031 C 111.570312 178.597656 112.566406 178.832031 113.542969 179.164062 C 114.515625 179.492188 115.449219 179.914062 116.34375 180.421875 C 117.238281 180.933594 118.078125 181.523438 118.859375 182.191406 C 119.640625 182.859375 120.351562 183.597656 120.992188 184.402344 C 121.632812 185.207031 122.195312 186.066406 122.671875 186.980469 C 123.148438 187.890625 123.535156 188.839844 123.828125 189.828125 L 150.371094 197.789062 L 176.230469 190.027344 L 180.222656 162.125 L 101.878906 162.125 C 100.902344 162.125 99.933594 162.035156 98.972656 161.859375 C 98.011719 161.683594 97.074219 161.425781 96.164062 161.078125 C 95.25 160.730469 94.375 160.308594 93.539062 159.804688 C 92.703125 159.296875 91.917969 158.722656 91.183594 158.078125 C 90.453125 157.429688 89.785156 156.722656 89.179688 155.953125 C 88.578125 155.1875 88.046875 154.371094 87.589844 153.507812 C 87.136719 152.644531 86.761719 151.746094 86.46875 150.816406 C 86.175781 149.882812 85.964844 148.933594 85.84375 147.964844 L 77.765625 83.296875 C 77.691406 82.730469 77.652344 82.160156 77.640625 81.589844 C 77.632812 81.019531 77.652344 80.449219 77.699219 79.878906 C 77.75 79.308594 77.832031 78.742188 77.941406 78.183594 C 78.050781 77.621094 78.191406 77.070312 78.359375 76.523438 C 78.527344 75.976562 78.722656 75.441406 78.949219 74.917969 C 79.175781 74.390625 79.425781 73.878906 79.707031 73.382812 C 79.984375 72.882812 80.289062 72.402344 80.621094 71.933594 C 80.953125 71.46875 81.304688 71.023438 81.683594 70.59375 C 82.0625 70.164062 82.460938 69.757812 82.882812 69.371094 C 83.304688 68.988281 83.746094 68.625 84.203125 68.285156 C 84.664062 67.945312 85.140625 67.632812 85.632812 67.34375 C 86.125 67.054688 86.632812 66.792969 87.152344 66.554688 C 87.671875 66.320312 88.207031 66.113281 88.746094 65.9375 C 89.289062 65.757812 89.839844 65.609375 90.398438 65.488281 C 90.957031 65.367188 91.519531 65.277344 92.089844 65.214844 C 92.65625 65.15625 93.226562 65.125 93.796875 65.125 L 206.941406 65.125 C 207.472656 65.125 208 65.152344 208.527344 65.203125 C 209.054688 65.253906 209.574219 65.332031 210.09375 65.4375 C 210.613281 65.539062 211.128906 65.667969 211.632812 65.820312 C 212.140625 65.976562 212.636719 66.152344 213.128906 66.355469 C 213.617188 66.558594 214.09375 66.785156 214.5625 67.035156 C 215.027344 67.285156 215.480469 67.554688 215.921875 67.847656 C 216.363281 68.144531 216.785156 68.457031 217.195312 68.792969 C 217.605469 69.128906 217.996094 69.484375 218.371094 69.859375 C 218.746094 70.234375 219.101562 70.625 219.4375 71.035156 C 219.773438 71.445312 220.085938 71.871094 220.382812 72.308594 C 220.675781 72.75 220.949219 73.203125 221.195312 73.671875 C 221.445312 74.136719 221.671875 74.617188 221.875 75.105469 C 222.078125 75.59375 222.253906 76.09375 222.410156 76.597656 C 222.5625 77.105469 222.691406 77.617188 222.792969 78.136719 C 222.898438 78.65625 222.976562 79.179688 223.027344 79.707031 C 223.078125 80.234375 223.105469 80.761719 223.105469 81.292969 C 223.105469 81.820312 223.078125 82.347656 223.027344 82.875 C 222.976562 83.402344 222.898438 83.925781 222.792969 84.445312 C 222.691406 84.964844 222.5625 85.476562 222.410156 85.984375 C 222.253906 86.492188 222.078125 86.988281 221.875 87.476562 C 221.671875 87.96875 221.445312 88.445312 221.195312 88.914062 C 220.949219 89.378906 220.675781 89.832031 220.382812 90.273438 C 220.085938 90.714844 219.773438 91.136719 219.4375 91.546875 C 219.101562 91.957031 218.746094 92.347656 218.371094 92.722656 C 217.996094 93.097656 217.605469 93.453125 217.195312 93.789062 C 216.785156 94.125 216.363281 94.441406 215.921875 94.734375 C 215.480469 95.027344 215.027344 95.300781 214.5625 95.550781 C 214.09375 95.800781 213.617188 96.023438 213.128906 96.226562 C 212.636719 96.429688 212.140625 96.609375 211.632812 96.761719 C 211.128906 96.914062 210.613281 97.042969 210.09375 97.148438 C 209.574219 97.25 209.054688 97.328125 208.527344 97.378906 C 208 97.433594 207.472656 97.457031 206.941406 97.457031 L 112.109375 97.457031 L 116.152344 129.792969 L 198.859375 129.792969 C 199.4375 129.792969 200.011719 129.824219 200.585938 129.882812 C 201.160156 129.945312 201.730469 130.039062 202.292969 130.160156 C 202.859375 130.285156 203.414062 130.4375 203.960938 130.617188 C 204.511719 130.800781 205.046875 131.011719 205.570312 131.25 C 206.097656 131.492188 206.609375 131.757812 207.105469 132.050781 C 207.601562 132.347656 208.082031 132.667969 208.542969 133.011719 C 209.003906 133.359375 209.449219 133.726562 209.871094 134.121094 C 210.292969 134.515625 210.695312 134.929688 211.070312 135.367188 C 211.449219 135.800781 211.804688 136.257812 212.132812 136.730469 C 212.464844 137.207031 212.765625 137.695312 213.042969 138.203125 C 213.320312 138.710938 213.570312 139.230469 213.789062 139.761719 C 214.011719 140.296875 214.203125 140.839844 214.367188 141.394531 C 214.53125 141.949219 214.664062 142.507812 214.765625 143.078125 C 214.867188 143.644531 214.941406 144.21875 214.984375 144.792969 C 215.023438 145.371094 215.035156 145.945312 215.015625 146.523438 C 214.996094 147.101562 214.945312 147.675781 214.863281 148.246094 L 206.78125 204.828125 C 206.5625 206.355469 206.132812 207.824219 205.496094 209.226562 C 204.859375 210.632812 204.039062 211.917969 203.03125 213.089844 C 202.027344 214.257812 200.875 215.261719 199.582031 216.105469 C 198.289062 216.945312 196.902344 217.585938 195.425781 218.03125 L 155.015625 230.15625 C 153.5 230.605469 151.953125 230.832031 150.371094 230.832031 Z M 150.371094 230.832031 " fill-opacity="1" fill-rule="nonzero"/></svg>