<svg xmlns="http://www.w3.org/2000/svg" xmlns:xlink="http://www.w3.org/1999/xlink" width="400" zoomAndPan="magnify" viewBox="0 0 300 299.999988" height="400" preserveAspectRatio="xMidYMid meet" version="1.0"><defs><clipPath id="id1"><path d="M 4.089844 0 L 295.839844 0 L 295.839844 300 L 4.089844 300 Z M 4.089844 0 " clip-rule="nonzero"/></clipPath></defs><g clip-path="url(#id1)"><path fill="#ffffff" d="M 150.371094 299.542969 C 148.625 299.550781 146.921875 299.28125 145.261719 298.734375 L 48.28125 266.398438 C 46.851562 265.921875 45.515625 265.257812 44.269531 264.410156 C 43.023438 263.558594 41.921875 262.550781 40.957031 261.390625 C 39.996094 260.234375 39.207031 258.960938 38.601562 257.582031 C 37.992188 256.203125 37.585938 254.765625 37.378906 253.273438 L 5.050781 18.855469 C 4.972656 18.285156 4.925781 17.710938 4.90625 17.136719 C 4.886719 16.558594 4.898438 15.984375 4.945312 15.410156 C 4.988281 14.835938 5.0625 14.265625 5.164062 13.699219 C 5.269531 13.132812 5.402344 12.570312 5.566406 12.019531 C 5.730469 11.46875 5.925781 10.925781 6.148438 10.394531 C 6.367188 9.863281 6.617188 9.34375 6.894531 8.839844 C 7.171875 8.332031 7.476562 7.84375 7.808594 7.371094 C 8.136719 6.898438 8.492188 6.445312 8.867188 6.011719 C 9.246094 5.578125 9.648438 5.164062 10.070312 4.773438 C 10.492188 4.378906 10.933594 4.011719 11.394531 3.667969 C 11.859375 3.324219 12.335938 3.003906 12.832031 2.710938 C 13.328125 2.417969 13.839844 2.152344 14.363281 1.910156 C 14.886719 1.671875 15.421875 1.464844 15.96875 1.28125 C 16.515625 1.101562 17.070312 0.949219 17.636719 0.824219 C 18.199219 0.703125 18.765625 0.613281 19.339844 0.550781 C 19.910156 0.488281 20.488281 0.457031 21.0625 0.457031 L 279.675781 0.457031 C 280.253906 0.457031 280.828125 0.488281 281.398438 0.550781 C 281.972656 0.613281 282.539062 0.703125 283.101562 0.824219 C 283.664062 0.949219 284.21875 1.097656 284.765625 1.28125 C 285.3125 1.460938 285.847656 1.671875 286.371094 1.910156 C 286.894531 2.148438 287.402344 2.414062 287.898438 2.707031 C 288.394531 3 288.871094 3.316406 289.335938 3.664062 C 289.796875 4.007812 290.238281 4.375 290.660156 4.765625 C 291.082031 5.15625 291.480469 5.570312 291.859375 6.003906 C 292.238281 6.4375 292.59375 6.890625 292.921875 7.363281 C 293.253906 7.832031 293.554688 8.320312 293.832031 8.824219 C 294.109375 9.328125 294.359375 9.847656 294.582031 10.378906 C 294.804688 10.910156 295 11.449219 295.164062 12.003906 C 295.328125 12.554688 295.464844 13.113281 295.566406 13.679688 C 295.671875 14.246094 295.746094 14.816406 295.792969 15.390625 C 295.835938 15.964844 295.847656 16.539062 295.832031 17.113281 C 295.8125 17.6875 295.765625 18.261719 295.6875 18.832031 L 263.359375 253.25 C 263.15625 254.746094 262.75 256.183594 262.144531 257.566406 C 261.535156 258.949219 260.75 260.21875 259.789062 261.382812 C 258.824219 262.542969 257.71875 263.550781 256.472656 264.40625 C 255.230469 265.257812 253.890625 265.921875 252.457031 266.398438 L 155.476562 298.734375 C 153.820312 299.28125 152.117188 299.550781 150.371094 299.542969 Z M 68.035156 238.917969 L 150.371094 266.335938 L 232.707031 238.851562 L 261.128906 32.792969 L 39.652344 32.792969 Z M 68.035156 238.917969 " fill-opacity="1" fill-rule="nonzero"/></g><path fill="#ffffff" d="M 126.125 226.792969 C 123.578125 226.792969 121.167969 226.222656 118.890625 225.085938 L 86.566406 208.917969 C 86.089844 208.683594 85.628906 208.421875 85.179688 208.140625 C 84.734375 207.859375 84.300781 207.554688 83.878906 207.230469 C 83.460938 206.90625 83.058594 206.5625 82.675781 206.199219 C 82.289062 205.832031 81.925781 205.453125 81.578125 205.050781 C 81.230469 204.652344 80.902344 204.234375 80.597656 203.804688 C 80.289062 203.371094 80.007812 202.925781 79.742188 202.464844 C 79.480469 202.003906 79.242188 201.53125 79.027344 201.046875 C 78.808594 200.5625 78.617188 200.070312 78.449219 199.570312 C 78.28125 199.066406 78.140625 198.554688 78.023438 198.039062 C 77.90625 197.523438 77.8125 197 77.746094 196.476562 C 77.679688 195.949219 77.640625 195.421875 77.625 194.894531 C 77.613281 194.363281 77.625 193.835938 77.660156 193.304688 C 77.699219 192.777344 77.761719 192.253906 77.851562 191.730469 C 77.941406 191.207031 78.054688 190.691406 78.195312 190.179688 C 78.335938 189.667969 78.5 189.164062 78.6875 188.671875 C 78.878906 188.175781 79.089844 187.691406 79.328125 187.21875 C 79.566406 186.746094 79.824219 186.285156 80.109375 185.835938 C 80.390625 185.386719 80.695312 184.953125 81.019531 184.535156 C 81.34375 184.117188 81.6875 183.714844 82.050781 183.332031 C 82.417969 182.945312 82.800781 182.578125 83.199219 182.234375 C 83.601562 181.886719 84.015625 181.558594 84.449219 181.253906 C 84.882812 180.945312 85.328125 180.664062 85.789062 180.402344 C 86.25 180.140625 86.71875 179.898438 87.203125 179.683594 C 87.6875 179.46875 88.179688 179.277344 88.683594 179.109375 C 89.1875 178.941406 89.695312 178.800781 90.210938 178.683594 C 90.730469 178.566406 91.25 178.472656 91.777344 178.410156 C 92.300781 178.34375 92.828125 178.300781 93.359375 178.289062 C 93.886719 178.273438 94.417969 178.285156 94.945312 178.324219 C 95.472656 178.363281 96 178.425781 96.519531 178.515625 C 97.042969 178.605469 97.558594 178.71875 98.070312 178.859375 C 98.582031 179 99.085938 179.167969 99.578125 179.355469 C 100.074219 179.546875 100.558594 179.761719 101.03125 179.996094 L 109.960938 184.46875 L 109.960938 97.457031 L 77.632812 97.457031 C 77.105469 97.457031 76.578125 97.433594 76.050781 97.378906 C 75.523438 97.328125 75 97.25 74.480469 97.148438 C 73.960938 97.042969 73.449219 96.914062 72.941406 96.761719 C 72.4375 96.609375 71.9375 96.429688 71.449219 96.226562 C 70.960938 96.023438 70.480469 95.800781 70.015625 95.550781 C 69.546875 95.300781 69.09375 95.027344 68.65625 94.734375 C 68.214844 94.441406 67.789062 94.125 67.378906 93.789062 C 66.972656 93.453125 66.578125 93.097656 66.207031 92.722656 C 65.832031 92.347656 65.476562 91.957031 65.140625 91.546875 C 64.804688 91.136719 64.488281 90.714844 64.195312 90.273438 C 63.902344 89.832031 63.628906 89.378906 63.378906 88.914062 C 63.128906 88.445312 62.902344 87.96875 62.703125 87.476562 C 62.5 86.988281 62.320312 86.492188 62.167969 85.984375 C 62.011719 85.476562 61.886719 84.964844 61.78125 84.445312 C 61.679688 83.925781 61.601562 83.402344 61.550781 82.875 C 61.496094 82.347656 61.472656 81.820312 61.472656 81.292969 C 61.472656 80.761719 61.496094 80.234375 61.550781 79.707031 C 61.601562 79.179688 61.679688 78.65625 61.78125 78.136719 C 61.886719 77.617188 62.011719 77.105469 62.167969 76.597656 C 62.320312 76.09375 62.5 75.59375 62.703125 75.105469 C 62.902344 74.617188 63.128906 74.136719 63.378906 73.671875 C 63.628906 73.203125 63.902344 72.75 64.195312 72.308594 C 64.488281 71.871094 64.804688 71.445312 65.140625 71.035156 C 65.476562 70.625 65.832031 70.234375 66.207031 69.859375 C 66.578125 69.484375 66.972656 69.128906 67.378906 68.792969 C 67.789062 68.457031 68.214844 68.144531 68.65625 67.847656 C 69.09375 67.554688 69.546875 67.285156 70.015625 67.035156 C 70.480469 66.785156 70.960938 66.558594 71.449219 66.355469 C 71.9375 66.152344 72.4375 65.976562 72.941406 65.820312 C 73.449219 65.667969 73.960938 65.539062 74.480469 65.4375 C 75 65.332031 75.523438 65.253906 76.050781 65.203125 C 76.578125 65.152344 77.105469 65.125 77.632812 65.125 L 126.125 65.125 C 126.652344 65.125 127.183594 65.152344 127.710938 65.203125 C 128.234375 65.253906 128.757812 65.332031 129.277344 65.4375 C 129.796875 65.539062 130.308594 65.667969 130.816406 65.820312 C 131.324219 65.976562 131.820312 66.152344 132.308594 66.355469 C 132.800781 66.558594 133.277344 66.785156 133.746094 67.035156 C 134.210938 67.285156 134.664062 67.554688 135.105469 67.847656 C 135.546875 68.144531 135.96875 68.457031 136.378906 68.792969 C 136.789062 69.128906 137.179688 69.484375 137.554688 69.859375 C 137.929688 70.234375 138.285156 70.625 138.621094 71.035156 C 138.957031 71.445312 139.269531 71.871094 139.5625 72.308594 C 139.859375 72.75 140.128906 73.203125 140.378906 73.671875 C 140.628906 74.136719 140.855469 74.617188 141.058594 75.105469 C 141.261719 75.59375 141.4375 76.09375 141.59375 76.597656 C 141.746094 77.105469 141.875 77.617188 141.976562 78.136719 C 142.082031 78.65625 142.160156 79.179688 142.210938 79.707031 C 142.261719 80.234375 142.289062 80.761719 142.289062 81.292969 L 142.289062 210.625 C 142.289062 211.15625 142.261719 211.683594 142.210938 212.210938 C 142.160156 212.738281 142.082031 213.257812 141.976562 213.777344 C 141.875 214.296875 141.746094 214.8125 141.59375 215.316406 C 141.4375 215.824219 141.261719 216.324219 141.058594 216.8125 C 140.855469 217.300781 140.628906 217.777344 140.378906 218.246094 C 140.128906 218.714844 139.859375 219.167969 139.5625 219.605469 C 139.269531 220.046875 138.957031 220.472656 138.621094 220.882812 C 138.285156 221.289062 137.929688 221.683594 137.554688 222.054688 C 137.179688 222.429688 136.789062 222.785156 136.378906 223.121094 C 135.96875 223.457031 135.546875 223.773438 135.105469 224.066406 C 134.664062 224.359375 134.210938 224.632812 133.746094 224.882812 C 133.277344 225.132812 132.800781 225.359375 132.308594 225.5625 C 131.820312 225.765625 131.324219 225.941406 130.816406 226.09375 C 130.308594 226.25 129.796875 226.378906 129.277344 226.480469 C 128.757812 226.585938 128.234375 226.660156 127.710938 226.714844 C 127.183594 226.765625 126.652344 226.792969 126.125 226.792969 Z M 126.125 226.792969 " fill-opacity="1" fill-rule="nonzero"/><path fill="#ffffff" d="M 174.613281 226.792969 C 173.636719 226.789062 172.667969 226.703125 171.707031 226.523438 C 170.746094 226.347656 169.808594 226.085938 168.894531 225.738281 C 167.980469 225.390625 167.105469 224.964844 166.269531 224.457031 C 165.433594 223.953125 164.648438 223.375 163.917969 222.726562 C 163.183594 222.078125 162.515625 221.371094 161.914062 220.601562 C 161.3125 219.832031 160.78125 219.015625 160.328125 218.148438 C 159.871094 217.285156 159.5 216.382812 159.207031 215.453125 C 158.914062 214.519531 158.710938 213.566406 158.589844 212.597656 C 158.472656 211.625 158.441406 210.652344 158.496094 209.675781 C 158.554688 208.699219 158.699219 207.738281 158.929688 206.789062 C 159.164062 205.839844 159.480469 204.917969 159.878906 204.023438 C 160.277344 203.132812 160.753906 202.28125 161.304688 201.476562 C 161.859375 200.671875 162.480469 199.921875 163.167969 199.226562 C 163.859375 198.535156 164.605469 197.910156 165.40625 197.351562 C 166.210938 196.792969 167.054688 196.3125 167.945312 195.90625 C 168.835938 195.503906 169.753906 195.179688 170.703125 194.941406 L 192.523438 189.496094 L 196.378906 162.125 L 182.695312 162.125 C 181.902344 162.125 181.109375 162.085938 180.320312 162.007812 C 179.53125 161.929688 178.746094 161.8125 177.96875 161.660156 C 177.1875 161.503906 176.417969 161.3125 175.660156 161.082031 C 174.898438 160.851562 174.152344 160.582031 173.417969 160.277344 C 172.683594 159.976562 171.96875 159.636719 171.269531 159.261719 C 170.566406 158.886719 169.886719 158.480469 169.226562 158.039062 C 168.566406 157.597656 167.929688 157.125 167.316406 156.621094 C 166.703125 156.117188 166.113281 155.582031 165.554688 155.023438 C 164.992188 154.460938 164.457031 153.871094 163.953125 153.257812 C 163.453125 152.644531 162.980469 152.007812 162.539062 151.347656 C 162.097656 150.6875 161.6875 150.007812 161.316406 149.304688 C 160.941406 148.605469 160.601562 147.890625 160.296875 147.15625 C 159.992188 146.421875 159.726562 145.675781 159.496094 144.914062 C 159.265625 144.15625 159.074219 143.386719 158.917969 142.605469 C 158.761719 141.828125 158.644531 141.042969 158.570312 140.25 C 158.492188 139.460938 158.453125 138.667969 158.453125 137.875 L 158.453125 89.375 C 158.453125 88.582031 158.492188 87.789062 158.570312 86.996094 C 158.644531 86.207031 158.761719 85.421875 158.917969 84.644531 C 159.074219 83.863281 159.265625 83.09375 159.496094 82.335938 C 159.726562 81.574219 159.992188 80.828125 160.296875 80.09375 C 160.601562 79.359375 160.941406 78.644531 161.316406 77.945312 C 161.6875 77.242188 162.097656 76.5625 162.539062 75.902344 C 162.980469 75.242188 163.453125 74.605469 163.957031 73.992188 C 164.457031 73.378906 164.992188 72.789062 165.554688 72.226562 C 166.113281 71.664062 166.703125 71.132812 167.316406 70.628906 C 167.929688 70.125 168.566406 69.652344 169.226562 69.210938 C 169.886719 68.769531 170.566406 68.363281 171.269531 67.988281 C 171.96875 67.613281 172.683594 67.273438 173.417969 66.972656 C 174.152344 66.667969 174.898438 66.398438 175.660156 66.167969 C 176.417969 65.9375 177.1875 65.746094 177.96875 65.589844 C 178.746094 65.4375 179.53125 65.320312 180.320312 65.242188 C 181.109375 65.164062 181.902344 65.125 182.695312 65.125 L 223.105469 65.125 C 223.636719 65.125 224.164062 65.152344 224.691406 65.203125 C 225.214844 65.253906 225.738281 65.332031 226.257812 65.4375 C 226.777344 65.539062 227.289062 65.667969 227.796875 65.820312 C 228.304688 65.976562 228.800781 66.152344 229.289062 66.355469 C 229.78125 66.558594 230.257812 66.785156 230.726562 67.035156 C 231.191406 67.285156 231.644531 67.554688 232.085938 67.847656 C 232.527344 68.144531 232.949219 68.457031 233.359375 68.792969 C 233.769531 69.128906 234.160156 69.484375 234.535156 69.859375 C 234.910156 70.234375 235.265625 70.625 235.601562 71.035156 C 235.9375 71.445312 236.25 71.871094 236.542969 72.308594 C 236.839844 72.75 237.109375 73.203125 237.359375 73.671875 C 237.609375 74.136719 237.835938 74.617188 238.039062 75.105469 C 238.242188 75.59375 238.417969 76.09375 238.574219 76.597656 C 238.726562 77.105469 238.855469 77.617188 238.957031 78.136719 C 239.0625 78.65625 239.140625 79.179688 239.191406 79.707031 C 239.242188 80.234375 239.269531 80.761719 239.269531 81.292969 C 239.269531 81.820312 239.242188 82.347656 239.191406 82.875 C 239.140625 83.402344 239.0625 83.925781 238.957031 84.445312 C 238.855469 84.964844 238.726562 85.476562 238.574219 85.984375 C 238.417969 86.492188 238.242188 86.988281 238.039062 87.476562 C 237.835938 87.96875 237.609375 88.445312 237.359375 88.914062 C 237.109375 89.378906 236.839844 89.832031 236.542969 90.273438 C 236.25 90.714844 235.9375 91.136719 235.601562 91.546875 C 235.265625 91.957031 234.910156 92.347656 234.535156 92.722656 C 234.160156 93.097656 233.769531 93.453125 233.359375 93.789062 C 232.949219 94.125 232.527344 94.441406 232.085938 94.734375 C 231.644531 95.027344 231.191406 95.300781 230.726562 95.550781 C 230.257812 95.800781 229.78125 96.023438 229.289062 96.226562 C 228.800781 96.429688 228.304688 96.609375 227.796875 96.761719 C 227.289062 96.914062 226.777344 97.042969 226.257812 97.148438 C 225.738281 97.25 225.214844 97.328125 224.691406 97.378906 C 224.164062 97.433594 223.636719 97.457031 223.105469 97.457031 L 190.777344 97.457031 L 190.777344 129.792969 L 205.699219 129.792969 C 206.492188 129.792969 207.285156 129.832031 208.074219 129.910156 C 208.863281 129.984375 209.648438 130.101562 210.425781 130.257812 C 211.207031 130.414062 211.976562 130.605469 212.734375 130.835938 C 213.496094 131.066406 214.242188 131.332031 214.976562 131.636719 C 215.710938 131.941406 216.425781 132.28125 217.125 132.65625 C 217.828125 133.03125 218.507812 133.4375 219.167969 133.878906 C 219.828125 134.320312 220.464844 134.792969 221.078125 135.296875 C 221.691406 135.800781 222.28125 136.332031 222.839844 136.894531 C 223.402344 137.457031 223.933594 138.042969 224.4375 138.65625 C 224.941406 139.273438 225.414062 139.910156 225.855469 140.570312 C 226.296875 141.230469 226.707031 141.910156 227.078125 142.609375 C 227.453125 143.3125 227.792969 144.027344 228.097656 144.761719 C 228.402344 145.496094 228.667969 146.242188 228.898438 147.003906 C 229.128906 147.761719 229.320312 148.53125 229.476562 149.3125 C 229.632812 150.089844 229.746094 150.875 229.824219 151.664062 C 229.902344 152.457031 229.941406 153.246094 229.941406 154.042969 C 229.941406 155.210938 229.855469 156.375 229.683594 157.535156 L 222.945312 204.820312 C 222.832031 205.613281 222.660156 206.390625 222.433594 207.15625 C 222.203125 207.921875 221.921875 208.667969 221.582031 209.390625 C 221.242188 210.117188 220.851562 210.808594 220.410156 211.476562 C 219.96875 212.140625 219.480469 212.773438 218.945312 213.367188 C 218.410156 213.957031 217.835938 214.507812 217.21875 215.019531 C 216.601562 215.527344 215.949219 215.984375 215.265625 216.398438 C 214.582031 216.808594 213.871094 217.167969 213.132812 217.472656 C 212.394531 217.78125 211.636719 218.03125 210.863281 218.222656 L 178.535156 226.308594 C 177.25 226.628906 175.941406 226.792969 174.613281 226.792969 Z M 197.703125 152.894531 Z M 197.703125 152.894531 " fill-opacity="1" fill-rule="nonzero"/></svg>