<svg xmlns="http://www.w3.org/2000/svg" xmlns:xlink="http://www.w3.org/1999/xlink" width="400" zoomAndPan="magnify" viewBox="0 0 300 299.999988" height="400" preserveAspectRatio="xMidYMid meet" version="1.0"><path fill="#ffffff" d="M 110.527344 78.949219 C 100.40625 78.949219 41.667969 78.949219 31.578125 78.949219 C 14.132812 78.949219 0 93.078125 0 110.527344 C 0 127.972656 14.132812 142.105469 31.578125 142.105469 C 41.667969 142.105469 100.40625 142.105469 110.527344 142.105469 C 127.972656 142.105469 142.105469 127.972656 142.105469 110.527344 C 142.105469 93.078125 127.972656 78.949219 110.527344 78.949219 Z M 142.105469 31.578125 C 142.105469 41.019531 142.105469 63.15625 142.105469 63.15625 C 142.105469 63.15625 118.53125 63.15625 110.527344 63.15625 C 93.078125 63.15625 78.949219 49.027344 78.949219 31.578125 C 78.949219 14.132812 93.078125 0 110.527344 0 C 127.972656 0 142.105469 14.132812 142.105469 31.578125 Z M 78.949219 189.472656 C 78.949219 199.59375 78.949219 258.332031 78.949219 268.421875 C 78.949219 285.867188 93.078125 300 110.527344 300 C 127.972656 300 142.105469 285.867188 142.105469 268.421875 C 142.105469 258.332031 142.105469 199.59375 142.105469 189.472656 C 142.105469 172.027344 127.972656 157.894531 110.527344 157.894531 C 93.078125 157.894531 78.949219 172.027344 78.949219 189.472656 Z M 31.578125 157.894531 C 41.019531 157.894531 63.15625 157.894531 63.15625 157.894531 C 63.15625 157.894531 63.15625 181.46875 63.15625 189.472656 C 63.15625 206.921875 49.027344 221.050781 31.578125 221.050781 C 14.132812 221.050781 0 206.921875 0 189.472656 C 0 172.027344 14.132812 157.894531 31.578125 157.894531 Z M 189.472656 221.050781 C 199.59375 221.050781 258.332031 221.050781 268.421875 221.050781 C 285.867188 221.050781 300 206.921875 300 189.472656 C 300 172.027344 285.867188 157.894531 268.421875 157.894531 C 258.332031 157.894531 199.59375 157.894531 189.472656 157.894531 C 172.027344 157.894531 157.894531 172.027344 157.894531 189.472656 C 157.894531 206.90625 172.027344 221.050781 189.472656 221.050781 Z M 157.894531 268.421875 C 157.894531 258.980469 157.894531 236.84375 157.894531 236.84375 C 157.894531 236.84375 181.46875 236.84375 189.472656 236.84375 C 206.921875 236.84375 221.050781 250.972656 221.050781 268.421875 C 221.050781 285.867188 206.921875 300 189.472656 300 C 172.027344 300 157.894531 285.851562 157.894531 268.421875 Z M 221.050781 110.527344 C 221.050781 100.40625 221.050781 41.667969 221.050781 31.578125 C 221.050781 14.132812 206.921875 0 189.472656 0 C 172.027344 0 157.894531 14.132812 157.894531 31.578125 C 157.894531 41.667969 157.894531 100.40625 157.894531 110.527344 C 157.894531 127.972656 172.027344 142.105469 189.472656 142.105469 C 206.90625 142.105469 221.050781 127.957031 221.050781 110.527344 Z M 268.421875 142.105469 C 258.980469 142.105469 236.84375 142.105469 236.84375 142.105469 C 236.84375 142.105469 236.84375 118.53125 236.84375 110.527344 C 236.84375 93.078125 250.972656 78.949219 268.421875 78.949219 C 285.867188 78.949219 300 93.078125 300 110.527344 C 300 127.972656 285.851562 142.105469 268.421875 142.105469 Z M 268.421875 142.105469 " fill-opacity="1" fill-rule="nonzero"/></svg>