<svg xmlns="http://www.w3.org/2000/svg" xmlns:xlink="http://www.w3.org/1999/xlink" width="400" zoomAndPan="magnify" viewBox="0 0 300 299.999988" height="400" preserveAspectRatio="xMidYMid meet" version="1.0"><path fill="#ffffff" d="M 21.324219 150 C 21.324219 200.941406 50.921875 244.953125 93.847656 265.8125 L 32.464844 97.636719 C 25.324219 113.632812 21.324219 131.339844 21.324219 150 Z M 236.886719 143.507812 C 236.886719 127.601562 231.167969 116.589844 226.261719 108.019531 C 219.746094 97.417969 213.628906 88.441406 213.628906 77.839844 C 213.628906 66.011719 222.605469 55 235.238281 55 C 235.816406 55 236.359375 55.070312 236.910156 55.105469 C 214.015625 34.128906 183.511719 21.324219 150.003906 21.324219 C 105.054688 21.324219 65.503906 44.386719 42.492188 79.324219 C 45.511719 79.414062 48.355469 79.480469 50.773438 79.480469 C 64.234375 79.480469 85.066406 77.847656 85.066406 77.847656 C 92.007812 77.4375 92.824219 87.625 85.894531 88.445312 C 85.894531 88.445312 78.921875 89.265625 71.164062 89.671875 L 118.027344 229.058594 L 146.191406 144.601562 L 126.132812 89.667969 C 119.203125 89.261719 112.644531 88.441406 112.644531 88.441406 C 105.710938 88.035156 106.523438 77.433594 113.457031 77.84375 C 113.457031 77.84375 134.710938 79.476562 147.359375 79.476562 C 160.816406 79.476562 181.652344 77.84375 181.652344 77.84375 C 188.59375 77.433594 189.40625 87.621094 182.476562 88.441406 C 182.476562 88.441406 175.488281 89.261719 167.746094 89.667969 L 214.25 227.996094 L 227.085938 185.101562 C 232.652344 167.304688 236.886719 154.515625 236.886719 143.503906 Z M 152.261719 161.257812 L 113.660156 273.445312 C 125.179688 276.835938 137.382812 278.695312 150.003906 278.695312 C 164.992188 278.695312 179.371094 276.105469 192.746094 271.398438 C 192.394531 270.847656 192.085938 270.257812 191.828125 269.625 Z M 262.921875 88.261719 C 263.476562 92.359375 263.792969 96.761719 263.792969 101.492188 C 263.792969 114.550781 261.359375 129.234375 254.003906 147.589844 L 214.699219 261.234375 C 252.957031 238.929688 278.6875 197.46875 278.6875 150 C 278.6875 127.636719 272.980469 106.589844 262.921875 88.261719 Z M 150.003906 0 C 67.296875 0 0.00390625 67.289062 0.00390625 150 C 0.00390625 232.71875 67.300781 300.011719 150.003906 300.011719 C 232.722656 300.011719 300.027344 232.71875 300.027344 150 C 300.015625 67.289062 232.722656 0 150.003906 0 Z M 150.003906 293.128906 C 71.089844 293.128906 6.886719 228.917969 6.886719 150 C 6.882812 71.082031 71.089844 6.882812 150.003906 6.882812 C 228.921875 6.878906 293.132812 71.082031 293.132812 150 C 293.132812 228.917969 228.921875 293.128906 150.003906 293.128906 Z M 150.003906 293.128906 " fill-opacity="1" fill-rule="nonzero"/></svg>