<?xml version="1.0" encoding="utf-8"?>
<!-- Generator: Adobe Illustrator 26.3.1, SVG Export Plug-In . SVG Version: 6.00 Build 0)  -->
<svg version="1.1" id="Ebene_1" xmlns="http://www.w3.org/2000/svg" xmlns:xlink="http://www.w3.org/1999/xlink" x="0px" y="0px"
	 viewBox="0 0 240 240" style="enable-background:new 0 0 240 240;" xml:space="preserve">
<style type="text/css">
	.st0{fill:#FFFFFF;}
</style>
<path class="st0" d="M216.9,1.6H23.1c-11.9,0-21.5,9.6-21.5,21.5v193.8c0,11.9,9.6,21.5,21.5,21.5h193.8c11.9,0,21.5-9.6,21.5-21.5
	V23.1C238.4,11.2,228.8,1.6,216.9,1.6z M202.8,103.6c-1.4,0.1-2.8,0.2-4.2,0.2c-16.1,0-30.2-8.3-38.5-20.8c0,32.8,0,70.2,0,70.8
	c0,28.9-23.4,52.3-52.3,52.3c-28.9,0-52.3-23.4-52.3-52.3c0-28.9,23.4-52.3,52.3-52.3c1.1,0,2.2,0.1,3.2,0.2v25.8
	c-1.1-0.1-2.1-0.3-3.2-0.3c-14.7,0-26.7,12-26.7,26.7c0,14.7,11.9,26.7,26.7,26.7s27.8-11.6,27.8-26.4c0-0.6,0.3-120.2,0.3-120.2
	h24.6c2.3,22,20.1,39.4,42.4,41V103.6z"/>
</svg>
