<?xml version="1.0" encoding="utf-8"?>
<!-- Generator: Adobe Illustrator 26.3.1, SVG Export Plug-In . SVG Version: 6.00 Build 0)  -->
<svg version="1.1" id="Ebene_1" xmlns="http://www.w3.org/2000/svg" xmlns:xlink="http://www.w3.org/1999/xlink" x="0px" y="0px"
	 viewBox="0 0 384 384" style="enable-background:new 0 0 384 384;" xml:space="preserve">
<style type="text/css">
	.st0{fill:#FFFFFF;}
</style>
<path class="st0" d="M108.9,5C51.6,5,5,51.6,5,108.9v166.2C5,332.4,51.6,379,108.9,379h166.2c57.3,0,103.9-46.6,103.9-103.9V108.9
	C379,51.6,332.4,5,275.1,5H108.9z M108.9,46.6h166.2c34.4,0,62.3,28,62.3,62.3v166.2c0,34.4-28,62.3-62.3,62.3H108.9
	c-34.4,0-62.3-28-62.3-62.3V108.9C46.6,74.5,74.5,46.6,108.9,46.6z M295.9,67.3c-11.5,0-20.8,9.3-20.8,20.8s9.3,20.8,20.8,20.8
	s20.8-9.3,20.8-20.8S307.4,67.3,295.9,67.3z M192,88.1c-57.3,0-103.9,46.6-103.9,103.9S134.7,295.9,192,295.9S295.9,249.3,295.9,192
	S249.3,88.1,192,88.1z M192,129.7c34.4,0,62.3,28,62.3,62.3s-28,62.3-62.3,62.3s-62.3-28-62.3-62.3S157.6,129.7,192,129.7z"/>
</svg>
